<svg fill="none" stroke-linecap="square" stroke-miterlimit="10" width="816.37" height="408.353" xmlns="http://www.w3.org/2000/svg"><path fill="#eee" d="M693.886 91.94c0 8.42 27.307 15.247 60.992 15.247s60.992-6.827 60.992-15.248v122.008c0 8.421-27.307 15.248-60.992 15.248s-60.992-6.827-60.992-15.248z" fill-rule="evenodd"/><path fill="#f4f4f4" d="M693.886 91.94c0-8.422 27.307-15.249 60.992-15.249s60.992 6.827 60.992 15.248-27.307 15.248-60.992 15.248-60.992-6.827-60.992-15.248z" fill-rule="evenodd"/><path fill="none" d="M815.87 91.94c0 8.42-27.307 15.247-60.992 15.247s-60.992-6.827-60.992-15.248 27.307-15.248 60.992-15.248 60.992 6.827 60.992 15.248v122.008c0 8.421-27.307 15.248-60.992 15.248s-60.992-6.827-60.992-15.248V91.939"/><path stroke="#595959" stroke-linejoin="round" stroke-linecap="butt" d="M815.87 91.94v0c0 8.42-27.307 15.247-60.992 15.247s-60.992-6.827-60.992-15.248v0c0-8.421 27.307-15.248 60.992-15.248s60.992 6.827 60.992 15.248v122.008c0 8.421-27.307 15.248-60.992 15.248s-60.992-6.827-60.992-15.248V91.939"/><path fill="#000" d="M717.054 167.487v-13.266h3.734q1.734 0 3.062.766 1.329.766 2.047 2.188.735 1.406.735 3.234v.844q0 1.875-.719 3.297-.719 1.406-2.063 2.171-1.343.75-3.14.766zm1.734-11.828v10.39h1.844q2.031 0 3.156-1.25t1.125-3.578v-.78q0-2.25-1.063-3.5-1.062-1.266-3.015-1.282zm16.312 11.828q-.14-.297-.234-1.031-1.172 1.219-2.813 1.219-1.453 0-2.39-.829-.922-.828-.922-2.093 0-1.532 1.156-2.375 1.172-.86 3.297-.86h1.64v-.781q0-.89-.53-1.406-.516-.531-1.548-.531-.906 0-1.515.468-.61.453-.61 1.094h-1.703q0-.734.516-1.422.531-.687 1.422-1.078.906-.406 1.984-.406 1.703 0 2.672.86.969.843 1 2.327v4.532q0 1.359.344 2.171v.141zm-2.797-1.281q.797 0 1.5-.406.72-.422 1.032-1.079v-2.015h-1.313q-3.11 0-3.11 1.812 0 .797.532 1.25.531.438 1.36.438zm9.148-10.969v2.39h1.844v1.313h-1.844v6.11q0 .593.235.89.25.297.843.297.297 0 .813-.11v1.36q-.672.188-1.297.188-1.125 0-1.703-.688-.578-.687-.578-1.937v-6.11h-1.797v-1.312h1.797v-2.391zm9.891 12.25q-.14-.297-.234-1.031-1.172 1.219-2.813 1.219-1.453 0-2.39-.829-.922-.828-.922-2.093 0-1.532 1.156-2.375 1.172-.86 3.297-.86h1.64v-.781q0-.89-.53-1.406-.516-.531-1.547-.531-.907 0-1.516.468-.61.453-.61 1.094h-1.703q0-.734.516-1.422.531-.687 1.422-1.078.906-.406 1.984-.406 1.703 0 2.672.86.969.843 1 2.327v4.532q0 1.359.344 2.171v.141zm-2.797-1.281q.797 0 1.5-.406.72-.422 1.032-1.079v-2.015h-1.313q-3.11 0-3.11 1.812 0 .797.532 1.25.531.438 1.36.438zm15.211-3.531q0 2.25-1.047 3.625-1.031 1.375-2.781 1.375-1.875 0-2.89-1.329l-.079 1.141h-1.547v-14h1.672v5.234q1.031-1.265 2.813-1.265 1.797 0 2.828 1.36 1.031 1.343 1.031 3.702zm-1.687-.204q0-1.718-.672-2.656-.657-.937-1.907-.937-1.671 0-2.406 1.547v4.265q.781 1.547 2.422 1.547 1.219 0 1.89-.937.673-.938.673-2.829zm9.888 5.016q-.14-.297-.234-1.031-1.172 1.219-2.813 1.219-1.453 0-2.39-.829-.922-.828-.922-2.093 0-1.532 1.156-2.375 1.172-.86 3.297-.86h1.64v-.781q0-.89-.53-1.406-.516-.531-1.548-.531-.906 0-1.515.468-.61.453-.61 1.094h-1.703q0-.734.516-1.422.531-.687 1.422-1.078.906-.406 1.984-.406 1.703 0 2.672.86.969.843 1 2.327v4.532q0 1.359.344 2.171v.141zm-2.797-1.281q.797 0 1.5-.406.72-.422 1.032-1.079v-2.015h-1.313q-3.11 0-3.11 1.812 0 .797.532 1.25.531.438 1.36.438zm12.601-1.328q0-.688-.515-1.063-.516-.375-1.797-.64-1.281-.282-2.031-.657-.75-.39-1.11-.922-.36-.53-.36-1.265 0-1.203 1.017-2.031 1.03-.844 2.625-.844 1.671 0 2.718.86 1.047.859 1.047 2.218h-1.687q0-.703-.594-1.203-.594-.5-1.484-.5-.922 0-1.438.406-.516.39-.516 1.047 0 .61.485.922.484.312 1.734.594 1.266.28 2.047.671.781.391 1.156.938.39.547.39 1.344 0 1.328-1.062 2.125-1.046.797-2.734.797-1.187 0-2.11-.422-.906-.422-1.421-1.172-.516-.75-.516-1.625h1.688q.047.844.672 1.344.64.5 1.687.5.953 0 1.531-.391.578-.39.578-1.031zm7.964 2.797q-2 0-3.266-1.313-1.25-1.328-1.25-3.531v-.313q0-1.468.563-2.61.562-1.155 1.562-1.796 1.016-.656 2.188-.656 1.922 0 2.984 1.265 1.063 1.266 1.063 3.625v.688h-6.672q.03 1.469.843 2.375.829.89 2.079.89.89 0 1.515-.359.625-.375 1.078-.969l1.032.797q-1.235 1.907-3.72 1.907zm-.203-8.844q-1.016 0-1.719.75-.688.734-.844 2.078h4.938v-.125q-.078-1.281-.703-1.984-.61-.72-1.672-.72z"/><path fill="#eee" d="M365.523 129.524c-1.396-11.287 3.187-22.461 11.803-28.78 8.617-6.319 19.756-6.674 28.691-.916 3.166-6.563 8.959-11.094 15.628-12.223 6.668-1.129 13.43 1.277 18.238 6.49 2.696-5.95 7.99-9.948 14.004-10.575 6.014-.627 11.895 2.206 15.558 7.494 4.871-6.307 12.622-8.963 19.897-6.818 7.276 2.145 12.77 8.706 14.106 16.844 5.968 1.79 10.94 6.345 13.63 12.484 2.69 6.14 2.834 13.263.397 19.53 5.877 8.417 7.251 19.632 3.611 29.46s-11.749 16.793-21.3 18.295c-.067 9.224-4.664 17.688-12.02 22.13-7.355 4.441-16.32 4.166-23.438-.719-3.032 11.048-11.567 19.177-21.917 20.875-10.35 1.697-20.659-3.34-26.474-12.936-7.128 4.73-15.681 6.093-23.73 3.78-8.049-2.312-14.915-8.104-19.05-16.07-7.285.938-14.327-3.214-17.633-10.397-3.306-7.182-2.172-15.866 2.84-21.74-6.498-4.208-9.813-12.559-8.218-20.697 1.596-8.139 7.74-14.22 15.23-15.075z" fill-rule="evenodd"/><path fill="none" d="M358.366 165.731c3.066 1.986 6.608 2.887 10.15 2.582m4.64 29.556a16.233 16.233 0 004.442-1.235m38.337 13.525a31.04 31.04 0 01-2.676-5.637m51.069-2.302a32.605 32.605 0 001.068-6.185m34.389-15.226c.072-9.82-4.997-18.812-13.03-23.113m30.718-24.641c-1.3 3.344-3.286 6.31-5.801 8.667m-8.224-40.682c.221 1.35.324 2.72.306 4.093m-34.309-14.119a21.778 21.778 0 00-2.972 5.22m-26.59-2.14a20.576 20.576 0 00-1.44 4.503m-32.426 1.231a27.507 27.507 0 015.209 4.368m-45.703 25.328a32.35 32.35 0 00.909 4.595"/><path stroke="#595959" stroke-linejoin="round" stroke-linecap="butt" d="M365.523 129.524v0c-1.396-11.287 3.187-22.461 11.803-28.78 8.617-6.319 19.756-6.674 28.691-.916v0c3.166-6.563 8.959-11.094 15.628-12.223 6.668-1.129 13.43 1.277 18.238 6.49v0c2.696-5.95 7.99-9.948 14.004-10.575 6.014-.627 11.895 2.206 15.558 7.494v0c4.871-6.307 12.622-8.963 19.897-6.818 7.276 2.145 12.77 8.706 14.106 16.844v0c5.968 1.79 10.94 6.345 13.63 12.484 2.69 6.14 2.834 13.263.397 19.53v0c5.877 8.417 7.251 19.632 3.611 29.46s-11.749 16.793-21.3 18.295c-.067 9.224-4.664 17.688-12.02 22.13-7.355 4.441-16.32 4.166-23.438-.719v0c-3.032 11.048-11.567 19.177-21.917 20.875-10.35 1.697-20.659-3.34-26.474-12.936v0c-7.128 4.73-15.681 6.093-23.73 3.78-8.049-2.312-14.915-8.104-19.05-16.07v0c-7.285.938-14.327-3.214-17.633-10.397-3.306-7.182-2.172-15.866 2.84-21.74v0c-6.498-4.208-9.813-12.559-8.218-20.697 1.596-8.139 7.74-14.22 15.23-15.075z"/><path stroke="#595959" stroke-linejoin="round" stroke-linecap="butt" d="M358.366 165.731v0c3.066 1.986 6.608 2.887 10.15 2.582m4.64 29.556a16.233 16.233 0 004.442-1.235m38.337 13.525a31.04 31.04 0 01-2.676-5.637m51.069-2.302v0a32.605 32.605 0 001.068-6.185m34.389-15.226c.072-9.82-4.997-18.812-13.03-23.113m30.718-24.641c-1.3 3.344-3.286 6.31-5.801 8.667m-8.224-40.682v0c.221 1.35.324 2.72.306 4.093m-34.309-14.119v0a21.778 21.778 0 00-2.972 5.22m-26.59-2.14v0a20.576 20.576 0 00-1.44 4.503m-32.426 1.231v0a27.507 27.507 0 015.209 4.368m-45.703 25.328v0a32.35 32.35 0 00.909 4.595"/><path fill="#000" d="M409.479 150.714q-2.25-.656-3.281-1.593-1.032-.938-1.032-2.328 0-1.563 1.25-2.594 1.266-1.031 3.266-1.031 1.36 0 2.437.53 1.079.532 1.657 1.47.593.921.593 2.03h-1.765q0-1.202-.766-1.89-.765-.687-2.156-.687-1.297 0-2.016.562-.718.563-.718 1.578 0 .813.687 1.375.688.563 2.328 1.032 1.656.453 2.594 1.015.937.563 1.375 1.313.453.75.453 1.75 0 1.609-1.25 2.593-1.25.97-3.36.97-1.374 0-2.562-.516-1.172-.532-1.812-1.438-.641-.922-.641-2.078h1.75q0 1.203.89 1.906.891.688 2.376.688 1.375 0 2.109-.563.75-.562.75-1.531 0-.984-.687-1.516-.688-.531-2.47-1.047zm10.974 6.094q-2 0-3.266-1.312-1.25-1.328-1.25-3.532v-.312q0-1.469.563-2.61.562-1.156 1.562-1.796 1.016-.657 2.188-.657 1.922 0 2.984 1.266 1.063 1.266 1.063 3.625v.688h-6.672q.031 1.468.844 2.375.828.89 2.078.89.89 0 1.515-.36.625-.374 1.079-.968l1.03.797q-1.234 1.906-3.718 1.906zm-.203-8.844q-1.016 0-1.719.75-.687.735-.844 2.079h4.938v-.125q-.078-1.282-.703-1.985-.61-.719-1.672-.719zm10.774.313q-.39-.063-.843-.063-1.657 0-2.25 1.407v7h-1.672v-9.86h1.64l.016 1.14q.828-1.312 2.36-1.312.484 0 .75.125zm4.962 6.062l2.437-7.578h1.719l-3.531 9.86h-1.282l-3.578-9.86h1.72zm9.746 2.47q-2 0-3.266-1.313-1.25-1.328-1.25-3.532v-.312q0-1.469.563-2.61.562-1.156 1.562-1.796 1.016-.657 2.188-.657 1.922 0 2.984 1.266 1.063 1.266 1.063 3.625v.688h-6.672q.031 1.468.844 2.375.828.89 2.078.89.89 0 1.515-.36.625-.374 1.078-.968l1.032.797q-1.235 1.906-3.719 1.906zm-.203-8.845q-1.016 0-1.719.75-.687.735-.844 2.079h4.938v-.125q-.078-1.282-.703-1.985-.61-.719-1.672-.719zm10.774.313q-.39-.063-.844-.063-1.656 0-2.25 1.407v7h-1.671v-9.86h1.64l.016 1.14q.828-1.312 2.36-1.312.484 0 .75.125z"/><path fill="#eee" d="M.5 90.14h178.52v125.606H.5z" fill-rule="evenodd"/><path stroke="#595959" stroke-linejoin="round" stroke-linecap="butt" d="M.5 90.14h178.52v125.606H.5z"/><path fill="#000" d="M77.322 155.66q-.25 2.094-1.563 3.25-1.296 1.14-3.468 1.14-2.344 0-3.766-1.687-1.422-1.688-1.422-4.516v-1.265q0-1.86.656-3.25.672-1.407 1.875-2.157 1.22-.765 2.813-.765 2.11 0 3.39 1.187 1.282 1.172 1.485 3.266h-1.766q-.218-1.578-.984-2.281-.766-.719-2.125-.719-1.672 0-2.625 1.234-.953 1.235-.953 3.532v1.28q0 2.157.89 3.438.907 1.266 2.532 1.266 1.453 0 2.234-.656.781-.657 1.031-2.297zm3.955 4.203H79.59v-14h1.687zm4.528 0h-1.688v-9.86h1.688zm-1.828-12.469q0-.406.25-.687.25-.297.734-.297.5 0 .75.297.266.281.266.687t-.266.688q-.25.265-.75.265-.484 0-.734-.265-.25-.282-.25-.688zm8.605 12.656q-2 0-3.265-1.312-1.25-1.328-1.25-3.531v-.313q0-1.469.562-2.61.563-1.155 1.563-1.796 1.015-.656 2.187-.656 1.922 0 2.984 1.265 1.063 1.266 1.063 3.625v.688h-6.672q.031 1.469.844 2.375.828.89 2.078.89.89 0 1.516-.359.625-.375 1.078-.969l1.031.797q-1.234 1.906-3.719 1.906zm-.203-8.843q-1.016 0-1.719.75-.687.734-.843 2.078h4.937v-.125q-.078-1.281-.703-1.985-.61-.718-1.672-.718zm7.603-1.203l.047 1.234q1.125-1.406 2.953-1.406 3.125 0 3.156 3.515v6.516h-1.688v-6.516q-.015-1.078-.5-1.578-.468-.515-1.484-.515-.812 0-1.437.437-.61.438-.97 1.156v7.016h-1.671v-9.86zm10.98-2.391v2.39h1.845v1.313h-1.844v6.11q0 .593.234.89.25.297.844.297.297 0 .813-.11v1.36q-.672.187-1.297.187-1.125 0-1.703-.687-.579-.688-.579-1.938v-6.109h-1.796v-1.312h1.796v-2.391z"/><path fill="none" d="M179.02 0h204.787v38.772H179.02z"/><path fill="#000" d="M198.574 20.97v2.812q-.75.406-1.5.625-.75.219-1.485.219-1.062 0-1.86-.313-.796-.328-1.359-.89-.546-.563-.859-1.25-.312-.704-.312-1.766v-1.203q0-1.078.53-2.094.548-1.031 1.47-1.563.937-.546 2.03-.546 1.579 0 2.673.875 0-.391.03-.47.032-.077.11-.124.094-.063.203-.063.141 0 .235.11.093.093.093.328v1.484q0 .235-.093.344-.094.094-.235.094-.14 0-.234-.094-.078-.094-.094-.313-.047-.671-.86-1.093-.812-.422-1.78-.422-.907 0-1.641.406-.719.39-1.36 1.5-.421.719-.421 1.64v1.204q0 1.625 1 2.594 1 .953 2.765.953.594 0 1.094-.125.516-.125 1.188-.438V20.97h-2.25q-.235 0-.344-.093-.094-.094-.094-.235 0-.156.094-.25.11-.093.344-.093l3.156.015q.234 0 .328.094.11.078.11.234 0 .094-.063.188-.063.078-.14.11-.079.03-.47.03zm3.898-1.032v3.766h5.047v-1.938q0-.234.078-.328.094-.11.25-.11.14 0 .234.11.094.094.094.328v2.594h-7.25q-.234 0-.344-.094-.093-.093-.093-.234 0-.156.093-.234.11-.094.344-.094h.89v-7.828h-.89q-.234 0-.344-.094-.093-.094-.093-.234 0-.157.093-.235.11-.093.344-.093h6.906v2.25q0 .234-.093.343-.094.094-.235.094-.156 0-.25-.094-.078-.109-.078-.343v-1.594h-4.703v3.406h2.344v-.734q0-.235.093-.328.094-.11.25-.11.141 0 .235.11.094.093.094.328v2.14q0 .235-.094.344-.094.094-.235.094-.156 0-.25-.094-.093-.11-.093-.344v-.75zm12.055-4.062v7.828h1.703q.234 0 .328.093.11.079.11.235 0 .14-.11.234-.094.094-.328.094h-4.063q-.234 0-.343-.094-.094-.094-.094-.234 0-.156.094-.235.109-.093.343-.093h1.703v-7.828h-2.687v2.265q0 .25-.094.36-.093.093-.234.093-.14 0-.235-.093-.093-.11-.093-.36V15.22h7.344v2.922q0 .25-.094.36-.078.093-.235.093-.14 0-.234-.093-.094-.11-.094-.36v-2.265zm21.828-1.797l-5.281 11.312q-.125.297-.344.297-.125 0-.235-.11-.093-.093-.093-.202 0-.094.078-.266l5.281-11.313q.078-.187.156-.234.078-.062.188-.062.14 0 .234.109.094.094.094.203 0 .094-.078.266zm5.304 3.515h3.563q.234 0 .328.094.11.094.11.234 0 .141-.11.235-.094.094-.328.094h-3.563v4.375q0 .562.454.953.468.375 1.343.375.672 0 1.438-.188.781-.203 1.203-.453.156-.11.266-.11.125 0 .218.11.094.094.094.219t-.11.219q-.25.265-1.218.578-.953.297-1.844.297-1.14 0-1.828-.547-.672-.547-.672-1.453V18.25h-1.219q-.234 0-.343-.094-.094-.094-.094-.235 0-.14.094-.234.11-.094.343-.094h1.22v-1.937q0-.234.093-.328.094-.11.234-.11t.235.11q.093.093.093.328zm12.836 6.766v-.953q-1.421 1.219-3.046 1.219-1.188 0-1.86-.594-.656-.61-.656-1.484 0-.954.875-1.657.875-.718 2.562-.718.454 0 .985.062.531.063 1.14.188V19.36q0-.547-.5-.938-.5-.406-1.5-.406-.765 0-2.14.453-.25.078-.328.078-.125 0-.22-.093-.077-.094-.077-.235 0-.14.078-.218.11-.11.875-.313 1.219-.328 1.844-.328 1.25 0 1.937.61.703.609.703 1.39v4.344h.875q.235 0 .328.093.11.079.11.235 0 .14-.11.234-.093.094-.328.094zm0-3.266q-.453-.14-.968-.203-.516-.062-1.094-.062-1.422 0-2.234.625-.61.453-.61 1.093 0 .594.469 1 .469.407 1.36.407.843 0 1.577-.328.735-.344 1.5-1.094zm9.883-3.078q0-.218.094-.312.094-.11.234-.11.157 0 .25.11.094.093.094.328v1.125q0 .234-.094.344-.093.093-.25.093-.125 0-.218-.078-.094-.093-.11-.281-.047-.469-.484-.781-.64-.438-1.688-.438-1.11 0-1.718.453-.454.328-.454.75 0 .47.547.782.375.218 1.422.328 1.36.156 1.89.343.766.266 1.126.75.375.485.375 1.047 0 .844-.813 1.5-.797.657-2.343.657-1.563 0-2.547-.797 0 .265-.032.343-.03.079-.125.141-.078.047-.171.047-.141 0-.235-.094-.093-.11-.093-.343v-1.36q0-.234.078-.328.093-.11.25-.11.14 0 .234.11.094.094.094.25 0 .36.187.61.266.374.86.624.609.235 1.468.235 1.282 0 1.907-.469.625-.484.625-1.016 0-.609-.625-.968-.641-.375-1.875-.5-1.22-.125-1.75-.328-.532-.204-.829-.61-.296-.406-.296-.875 0-.844.828-1.328.828-.5 1.984-.5 1.36 0 2.203.656zm6.102 3.422v2.922h-1.531q-.235 0-.344-.094-.094-.093-.094-.234 0-.156.094-.234.11-.094.344-.094h.875v-8.485h-.875q-.235 0-.344-.093-.094-.094-.094-.25 0-.14.094-.235.11-.093.344-.093h1.53v6.047l2.798-2.344h-.344q-.234 0-.344-.094-.094-.094-.094-.234t.094-.235q.11-.093.344-.093h2.11q.234 0 .327.093.11.094.11.235 0 .14-.11.234-.093.094-.328.094h-.765l-2.563 2.14 3.25 3.313h.75q.25 0 .344.094.11.078.11.234 0 .14-.11.234-.094.094-.344.094h-2.125q-.234 0-.344-.094-.093-.093-.093-.234 0-.156.093-.234.11-.094.344-.094h.469l-2.828-2.906zm13.101-3.422q0-.218.094-.312.094-.11.234-.11.157 0 .25.11.094.093.094.328v1.125q0 .234-.094.344-.093.093-.25.093-.125 0-.218-.078-.094-.093-.11-.281-.047-.469-.484-.781-.64-.438-1.688-.438-1.109 0-1.718.453-.453.328-.453.75 0 .47.546.782.375.218 1.422.328 1.36.156 1.89.343.767.266 1.126.75.375.485.375 1.047 0 .844-.813 1.5-.796.657-2.343.657-1.563 0-2.547-.797 0 .265-.031.343-.032.079-.125.141-.078.047-.172.047-.14 0-.235-.094-.093-.11-.093-.343v-1.36q0-.234.078-.328.093-.11.25-.11.14 0 .234.11.094.094.094.25 0 .36.187.61.266.374.86.624.61.235 1.468.235 1.282 0 1.907-.469.625-.484.625-1.016 0-.609-.625-.968-.64-.375-1.875-.5-1.219-.125-1.75-.328-.532-.204-.828-.61-.297-.406-.297-.875 0-.844.828-1.328.828-.5 1.984-.5 1.36 0 2.203.656zm19.266 1.922h-4.36v3.766h.891q.235 0 .328.093.11.079.11.235 0 .14-.11.234-.093.094-.328.094h-2.281q-.234 0-.344-.094-.093-.094-.093-.234 0-.156.093-.235.11-.093.344-.093h.734v-7.828h-.406q-.234 0-.344-.094-.093-.094-.093-.234 0-.157.093-.235.11-.094.344-.094h1.953q.235 0 .328.094.11.078.11.235 0 .14-.11.234-.093.094-.328.094h-.89v3.406h4.359v-3.406h-.875q-.234 0-.344-.094-.093-.094-.093-.234 0-.157.093-.235.094-.094.344-.094h1.937q.25 0 .344.094.11.078.11.235 0 .14-.11.234-.093.094-.344.094h-.406v7.828h.75q.235 0 .328.093.11.079.11.235 0 .14-.11.234-.093.094-.328.094h-2.281q-.234 0-.344-.094-.093-.094-.093-.234 0-.156.093-.235.094-.093.344-.093h.875zm7.695-4.062v7.828h1.703q.235 0 .329.093.109.079.109.235 0 .14-.11.234-.093.094-.328.094h-4.062q-.234 0-.344-.094-.094-.094-.094-.234 0-.156.094-.235.11-.093.344-.093h1.703v-7.828H307.2v2.265q0 .25-.094.36-.094.093-.235.093-.14 0-.234-.093-.094-.11-.094-.36V15.22h7.344v2.922q0 .25-.094.36-.078.093-.234.093-.14 0-.234-.093-.094-.11-.094-.36v-2.265zm9.602 0v7.828h1.703q.234 0 .328.093.11.079.11.235 0 .14-.11.234-.094.094-.328.094h-4.063q-.234 0-.343-.094-.094-.094-.094-.234 0-.156.094-.235.11-.093.343-.093h1.704v-7.828H316.8v2.265q0 .25-.094.36-.093.093-.234.093-.14 0-.234-.093-.094-.11-.094-.36V15.22h7.344v2.922q0 .25-.094.36-.078.093-.234.093-.141 0-.235-.093-.093-.11-.093-.36v-2.265zm7.851 4.734v3.094h2.25q.235 0 .329.093.109.079.109.235 0 .14-.11.234-.093.094-.328.094h-3.78q-.235 0-.345-.094-.093-.094-.093-.234 0-.156.093-.235.11-.093.344-.093h.875v-7.828h-.875q-.234 0-.344-.094-.093-.094-.093-.234 0-.157.093-.235.11-.094.344-.094h3.813q1.343 0 2.203.797.86.797.86 1.86 0 .64-.282 1.156-.281.5-.672.781-.578.438-1.203.64-.453.157-1.125.157zm0-.656h2.094q.735 0 1.36-.328.64-.329.937-.797.297-.469.297-.953 0-.766-.672-1.375-.656-.625-1.672-.625h-2.344zm13.977-5.875l-5.281 11.312q-.125.297-.344.297-.125 0-.234-.11-.094-.093-.094-.202 0-.094.078-.266l5.281-11.313q.078-.187.157-.234.078-.062.187-.062.14 0 .234.109.094.094.094.203 0 .094-.078.266zm3.836 9.625h5.031v-.266q0-.234.094-.328.094-.11.25-.11.14 0 .234.11.094.094.094.328v.922h-6.344v-.969q2-1.797 3.89-3.656.876-.875 1.204-1.281.328-.407.453-.703.125-.313.125-.625 0-.844-.687-1.485-.672-.656-1.641-.656-.86 0-1.531.5-.657.484-.844 1.203-.047.188-.125.25-.094.078-.219.078t-.219-.093q-.093-.094-.093-.22 0-.374.406-1.015.422-.64 1.14-1 .72-.375 1.485-.375 1.219 0 2.094.86.89.843.89 1.921 0 .454-.156.844-.14.375-.5.828-.344.438-1.266 1.344-2.312 2.281-3.765 3.547zm12.289-1.235h.281q.438 0 .75.313.313.312.313.75 0 .453-.328.766-.313.296-.735.296h-.281q-.438 0-.75-.312-.313-.313-.313-.75 0-.453.313-.75.312-.313.75-.313zm12.742-3.828v1.625q0 2.125-1 3.36-.797.968-2 .968-.578 0-1.094-.234-.5-.234-.859-.64-.234-.266-.5-.829-.266-.578-.39-1.047-.172-.672-.172-1.578v-1.625q0-2.125 1-3.36.796-.968 2-.968.578 0 1.078.234.515.235.875.641.234.266.5.844.265.562.39 1.031.172.672.172 1.578zm-.656.094q0-.938-.266-1.734-.25-.797-.578-1.282-.203-.265-.515-.468-.438-.266-1-.266-1.094 0-1.72 1.125-.624 1.125-.624 2.625v1.437q0 .938.25 1.75.265.797.61 1.266.187.266.5.469.437.281 1 .281 1.093 0 1.718-1.125.625-1.14.625-2.64z"/><path fill="none" d="M511.222 0h204.787v38.772H511.222z"/><path fill="#000" d="M529.557 15.876v-.22q0-.234.078-.327.094-.11.25-.11.14 0 .234.11.094.093.094.328v1.672q0 .234-.094.343-.093.094-.234.094-.14 0-.234-.094-.094-.093-.094-.312-.047-.656-.688-1.172-.625-.531-1.656-.531-1.094 0-1.734.562-.64.563-.64 1.313 0 .39.171.719.188.312.484.515.297.203.672.328.375.11 1.172.25 1.344.22 1.844.438.687.312 1.031.86.344.53.344 1.265 0 1.125-.906 1.922-.89.797-2.407.797-1.718 0-2.734-1.079v.375q0 .235-.094.344-.093.094-.234.094-.14 0-.234-.094-.094-.11-.094-.343V22.11q0-.25.078-.344.094-.11.25-.11.14 0 .219.095.093.093.11.312.03.719.765 1.313.734.578 1.969.578 1.234 0 1.937-.61.719-.625.719-1.468 0-.516-.281-.907-.266-.406-.797-.64-.375-.172-1.563-.375-1.64-.266-2.36-.828-.718-.563-.718-1.61 0-1.031.828-1.765.828-.75 2.172-.75 1.375 0 2.375.875zm5.117 4.062v3.766h5.047v-1.938q0-.234.078-.328.094-.11.25-.11.14 0 .234.11.094.094.094.328v2.594h-7.25q-.234 0-.344-.094-.093-.093-.093-.234 0-.156.093-.234.11-.094.344-.094h.89v-7.828h-.89q-.234 0-.344-.094-.093-.094-.093-.234 0-.157.093-.235.11-.093.344-.093h6.906v2.25q0 .234-.093.343-.094.094-.235.094-.156 0-.25-.094-.078-.109-.078-.343v-1.594h-4.703v3.406h2.344v-.734q0-.235.094-.328.093-.11.25-.11.14 0 .234.11.094.093.094.328v2.14q0 .235-.094.344-.094.094-.234.094-.157 0-.25-.094-.094-.11-.094-.344v-.75zm10.602-4.062v7.828h4.359v-2.61q0-.234.094-.328.093-.11.234-.11.14 0 .234.095.094.093.094.343v3.266h-7.25q-.234 0-.344-.094-.093-.093-.093-.234 0-.156.093-.234.11-.094.344-.094h1.563v-7.828h-1.563q-.234 0-.344-.094-.093-.094-.093-.234 0-.157.093-.235.11-.093.344-.093h3.797q.234 0 .328.093.11.078.11.235 0 .14-.11.234-.094.094-.328.094zm8.601 4.062v3.766h5.047v-1.938q0-.234.078-.328.094-.11.25-.11.14 0 .235.11.093.094.093.328v2.594h-7.25q-.234 0-.343-.094-.094-.093-.094-.234 0-.156.094-.234.109-.094.343-.094h.89v-7.828h-.89q-.234 0-.343-.094-.094-.094-.094-.234 0-.157.094-.235.109-.093.343-.093h6.907v2.25q0 .234-.094.343-.094.094-.235.094-.156 0-.25-.094-.078-.109-.078-.343v-1.594h-4.703v3.406h2.344v-.734q0-.235.094-.328.093-.11.25-.11.14 0 .234.11.094.093.094.328v2.14q0 .235-.094.344-.094.094-.234.094-.157 0-.25-.094-.094-.11-.094-.344v-.75zm14.617-3.828v-.453q0-.235.094-.328.094-.11.234-.11.157 0 .235.11.094.093.094.328v1.812q0 .25-.094.36-.078.093-.235.093-.125 0-.218-.093-.094-.094-.11-.313-.03-.656-.703-1.156-.906-.703-2.062-.703-.766 0-1.438.344-.5.234-.797.593-.515.61-.812 1.344-.219.547-.219 1.235v1.156q0 1.468 1.063 2.547 1.062 1.078 2.468 1.078.844 0 1.5-.36.672-.375 1.297-1.109.14-.172.297-.172.14 0 .219.094.094.078.094.219 0 .171-.329.546-.64.72-1.453 1.094-.797.36-1.61.36-.718 0-1.452-.282-.563-.218-.938-.5-.36-.28-.89-.937-.532-.672-.735-1.235-.187-.578-.187-1.25V19.08q0-.969.515-1.969.516-1.016 1.422-1.563.907-.546 1.953-.546 1.625 0 2.797 1.109zm7.04-.234v7.828h1.703q.234 0 .328.093.11.079.11.235 0 .14-.11.234-.094.094-.328.094h-4.063q-.234 0-.344-.094-.093-.094-.093-.234 0-.156.093-.235.11-.093.344-.093h1.703v-7.828h-2.687v2.265q0 .25-.094.36-.094.093-.234.093-.141 0-.235-.093-.093-.11-.093-.36V15.22h7.343v2.922q0 .25-.093.36-.078.093-.235.093-.14 0-.234-.093-.094-.11-.094-.36v-2.265zm18.515 1.359v-2.234q0-.25.094-.344.093-.11.25-.11.14 0 .234.11.094.094.094.344v2.234l2.125-.688q.156-.046.234-.046.125 0 .219.093.094.094.094.235 0 .109-.078.203-.063.078-.266.14l-2.125.704 1.312 1.812q.125.172.125.281 0 .14-.093.235-.094.093-.235.093-.171 0-.328-.218l-1.328-1.829-1.312 1.829q-.172.218-.328.218-.141 0-.25-.093-.094-.094-.094-.235 0-.11.14-.281l1.313-1.812-2.14-.704q-.188-.062-.266-.14-.063-.094-.063-.203 0-.141.094-.235.094-.093.219-.093.078 0 .234.046zm17.984 2.703v3.766h2.25q.235 0 .329.093.109.079.109.235 0 .14-.11.234-.093.094-.328.094h-3.78q-.235 0-.345-.094-.093-.094-.093-.234 0-.156.093-.235.11-.093.344-.093h.875v-7.828h-.875q-.234 0-.344-.094-.093-.094-.093-.234 0-.157.11-.25.093-.079.327-.079h7.219v2.25q0 .235-.094.344-.093.094-.234.094-.14 0-.234-.094-.094-.11-.094-.344v-1.593h-5.031v3.406h2.359v-.734q0-.235.094-.329.093-.109.234-.109.14 0 .234.11.094.093.094.328v2.14q0 .235-.094.344-.093.094-.234.094-.14 0-.234-.094-.094-.11-.094-.344v-.75zm9.055.344v3.422h1.203q.25 0 .344.093.11.079.11.235 0 .14-.11.234-.094.094-.344.094h-2.75q-.234 0-.343-.094-.094-.094-.094-.234 0-.156.094-.235.109-.093.343-.093h.89v-7.828h-.89q-.234 0-.343-.094-.094-.094-.094-.234 0-.157.094-.235.109-.094.343-.094h3.969q1.234 0 2.063.782.843.765.843 1.75 0 .703-.515 1.328-.516.61-1.735 1.031.703.484 1.203 1.094.5.61 1.594 2.5h.5q.235 0 .328.094.11.078.11.234 0 .14-.11.234-.093.094-.328.094h-.875q-1.219-2.188-1.89-2.922-.657-.75-1.532-1.156zm0-.656h1.781q.86 0 1.563-.313.703-.312 1.016-.734.312-.422.312-.86 0-.656-.656-1.25-.656-.593-1.61-.593h-2.406zm15.742.187q0 1.313-.53 2.438-.532 1.109-1.47 1.75-.922.625-2 .625-1.578 0-2.797-1.344-1.203-1.36-1.203-3.469 0-2.125 1.203-3.469 1.22-1.343 2.797-1.343 1.078 0 2 .625.938.625 1.47 1.75.53 1.109.53 2.437zm-.656 0q0-1.61-.937-2.875-.922-1.281-2.407-1.281-1.375 0-2.359 1.219-.984 1.218-.984 2.937 0 1.828 1.03 2.985 1.032 1.156 2.313 1.156 1.485 0 2.407-1.266.937-1.265.937-2.875zm6.68 1.797h-.75l-2.516-5.734h-.125v7.828h1.203q.235 0 .328.093.11.079.11.235 0 .14-.11.234-.093.094-.328.094h-2.422q-.234 0-.343-.094-.094-.094-.094-.234 0-.156.094-.235.11-.093.343-.093h.563v-7.828h-.422q-.234 0-.344-.094-.093-.094-.093-.234 0-.157.093-.235.11-.094.344-.094h1.61l2.484 5.657 2.453-5.657h1.61q.234 0 .327.094.11.078.11.235 0 .14-.11.234-.093.094-.328.094h-.406v7.828h.547q.234 0 .328.093.11.079.11.235 0 .14-.11.234-.094.094-.328.094h-2.422q-.234 0-.344-.094-.093-.094-.093-.234 0-.156.093-.235.11-.093.344-.093h1.219v-7.828h-.14zm17.422-4.016h3.562q.235 0 .328.094.11.094.11.234 0 .141-.11.235-.093.094-.328.094h-3.562v4.375q0 .562.453.953.469.375 1.344.375.671 0 1.437-.188.781-.203 1.203-.453.156-.11.266-.11.125 0 .219.11.093.094.093.219t-.11.219q-.25.265-1.218.578-.953.297-1.844.297-1.14 0-1.828-.547-.672-.547-.672-1.453V18.25h-1.218q-.235 0-.344-.094-.094-.094-.094-.235 0-.14.094-.234.11-.094.344-.094h1.218v-1.937q0-.234.094-.328.094-.11.234-.11.141 0 .235.11.094.093.094.328zm12.836 6.766v-.953q-1.422 1.219-3.047 1.219-1.188 0-1.86-.594-.656-.61-.656-1.484 0-.954.875-1.657.875-.718 2.563-.718.453 0 .984.062.531.063 1.14.188V19.36q0-.547-.5-.938-.5-.406-1.5-.406-.765 0-2.14.453-.25.078-.328.078-.125 0-.219-.093-.078-.094-.078-.235 0-.14.078-.218.11-.11.875-.313 1.219-.328 1.844-.328 1.25 0 1.937.61.703.609.703 1.39v4.344h.875q.235 0 .329.093.109.079.109.235 0 .14-.11.234-.093.094-.328.094zm0-3.266q-.454-.14-.97-.203-.515-.062-1.093-.062-1.422 0-2.234.625-.61.453-.61 1.093 0 .594.47 1 .468.407 1.358.407.844 0 1.579-.328.734-.344 1.5-1.094zm9.882-3.078q0-.218.094-.312.094-.11.235-.11.156 0 .25.11.093.093.093.328v1.125q0 .234-.094.344-.093.093-.25.093-.125 0-.218-.078-.094-.093-.11-.281-.047-.469-.484-.781-.64-.438-1.688-.438-1.109 0-1.718.453-.453.328-.453.75 0 .47.547.782.375.218 1.421.328 1.36.156 1.891.343.766.266 1.125.75.375.485.375 1.047 0 .844-.813 1.5-.796.657-2.343.657-1.563 0-2.547-.797 0 .265-.031.343-.032.079-.125.141-.078.047-.172.047-.14 0-.235-.094-.093-.11-.093-.343v-1.36q0-.234.078-.328.094-.11.25-.11.14 0 .234.11.094.094.094.25 0 .36.187.61.266.374.86.624.61.235 1.469.235 1.28 0 1.906-.469.625-.484.625-1.016 0-.609-.625-.968-.64-.375-1.875-.5-1.219-.125-1.75-.328-.531-.204-.828-.61-.297-.406-.297-.875 0-.844.828-1.328.828-.5 1.984-.5 1.36 0 2.203.656zm6.102 3.422v2.922h-1.531q-.235 0-.344-.094-.094-.093-.094-.234 0-.156.094-.234.11-.094.344-.094h.875v-8.485h-.875q-.235 0-.344-.093-.094-.094-.094-.25 0-.14.094-.235.11-.093.344-.093h1.531v6.047l2.797-2.344h-.344q-.234 0-.344-.094-.093-.094-.093-.234t.093-.235q.11-.093.344-.093h2.11q.234 0 .328.093.109.094.109.235 0 .14-.11.234-.093.094-.328.094h-.765l-2.563 2.14 3.25 3.313h.75q.25 0 .344.094.11.078.11.234 0 .14-.11.234-.094.094-.344.094h-2.125q-.234 0-.343-.094-.094-.093-.094-.234 0-.156.094-.234.109-.094.343-.094h.47l-2.829-2.906zm13.102-3.422q0-.218.093-.312.094-.11.235-.11.156 0 .25.11.093.093.093.328v1.125q0 .234-.093.344-.094.093-.25.093-.125 0-.22-.078-.093-.093-.109-.281-.046-.469-.484-.781-.64-.438-1.687-.438-1.11 0-1.72.453-.452.328-.452.75 0 .47.547.782.375.218 1.422.328 1.359.156 1.89.343.766.266 1.125.75.375.485.375 1.047 0 .844-.812 1.5-.797.657-2.344.657-1.563 0-2.547-.797 0 .265-.031.343-.031.079-.125.141-.078.047-.172.047-.14 0-.234-.094-.094-.11-.094-.343v-1.36q0-.234.078-.328.094-.11.25-.11.14 0 .234.11.094.094.094.25 0 .36.188.61.265.374.859.624.61.235 1.469.235 1.28 0 1.906-.469.625-.484.625-1.016 0-.609-.625-.968-.64-.375-1.875-.5-1.219-.125-1.75-.328-.531-.204-.828-.61-.297-.406-.297-.875 0-.844.828-1.328.828-.5 1.984-.5 1.36 0 2.204.656z"/><path shape-rendering="crispEdges" fill="#eee" d="M505.62 263.869h71.997v30.396h-71.998zM577.617 263.869h71.997v30.396h-71.997zM649.614 263.869h71.998v30.396h-71.998z"/><path stroke="#9e9e9e" stroke-linecap="butt" d="M505.62 263.37v144.982M577.617 263.37v144.982M649.614 263.37v144.982M721.612 263.37v144.982M505.12 263.869h216.99M505.12 294.265h216.99M505.12 335.86h216.99M505.12 377.457h216.99M505.12 407.853h216.99"/><path fill="#000" d="M515.494 281.829v-6.672h.875v6.672zm2.436 0v-6.672h2.297q.78 0 1.187.094.578.125.985.468.53.453.78 1.157.266.687.266 1.578 0 .765-.171 1.36-.172.577-.454.968-.28.375-.609.594-.328.218-.797.343-.469.11-1.078.11zm.89-.781h1.422q.657 0 1.032-.125t.609-.344q.312-.328.484-.844.172-.531.172-1.297 0-1.047-.344-1.61-.343-.562-.828-.75-.36-.14-1.156-.14h-1.39zM589.023 281.094l.11.72q-.344.077-.61.077-.453 0-.703-.14-.234-.141-.344-.36-.094-.234-.094-.984v-2.781h-.609v-.641h.61v-1.187l.812-.5v1.687h.828v.64h-.828v2.829q0 .36.047.469.047.093.14.156.094.047.282.047.14 0 .36-.032zm.81-5v-.937h.813v.937zm0 5.735v-4.844h.813v4.844zm3.854-.735l.11.72q-.344.077-.61.077-.453 0-.703-.14-.234-.141-.344-.36-.093-.234-.093-.984v-2.781h-.61v-.641h.61v-1.187l.812-.5v1.687h.828v.64h-.828v2.829q0 .36.047.469.047.093.14.156.094.047.282.047.14 0 .36-.032zm.78.735v-6.672h.827v6.672zm5.4-1.563l.844.11q-.188.75-.735 1.156-.547.406-1.39.406-1.063 0-1.688-.656-.61-.656-.61-1.828 0-1.219.626-1.89.625-.688 1.625-.688.984 0 1.593.672.61.656.61 1.859v.219h-3.61q.047.797.454 1.218.406.422 1.015.422.453 0 .766-.234.312-.234.5-.766zm-2.688-1.328h2.703q-.062-.61-.312-.906-.39-.469-1.016-.469-.562 0-.953.375-.375.375-.422 1zM662.364 281.829v-.61q-.453.72-1.344.72-.578 0-1.062-.313-.484-.328-.766-.891-.265-.578-.265-1.312 0-.735.234-1.313.25-.594.734-.906.485-.328 1.079-.328.437 0 .78.187.345.188.563.485v-2.391h.813v6.672zm-2.594-2.406q0 .921.391 1.39.39.453.938.453.53 0 .906-.437.375-.438.375-1.344 0-1-.39-1.453-.376-.469-.938-.469-.547 0-.922.453-.36.438-.36 1.407zm4.345-.016q0-1.344.75-1.984.625-.547 1.515-.547 1 0 1.625.656.64.656.64 1.812 0 .938-.28 1.47-.282.53-.813.827-.531.297-1.172.297-1.015 0-1.64-.64-.625-.657-.625-1.891zm.843 0q0 .937.407 1.406.406.453 1.015.453.61 0 1.016-.468.406-.47.406-1.422 0-.89-.406-1.344-.406-.469-1.016-.469t-1.015.469q-.407.453-.407 1.375zm4.641 2.422v-4.844h.75v.688q.532-.797 1.532-.797.437 0 .796.172.375.156.547.406.188.25.266.61.047.218.047.796v2.969h-.828v-2.938q0-.5-.094-.75t-.344-.39q-.234-.157-.562-.157-.516 0-.906.329-.375.328-.375 1.265v2.64zm8.5-1.563l.844.11q-.187.75-.734 1.156-.547.406-1.39.406-1.063 0-1.688-.656-.61-.656-.61-1.828 0-1.219.626-1.89.625-.688 1.625-.688.984 0 1.593.672.61.656.61 1.859v.219h-3.61q.047.797.453 1.218.407.422 1.016.422.453 0 .766-.234.312-.234.5-.766zm-2.687-1.328h2.703q-.062-.61-.312-.906-.39-.469-1.016-.469-.562 0-.953.375-.375.375-.422 1zM515.01 310.475l.86-.078q.093.64.437.953.36.313.844.313.593 0 1-.438.406-.453.406-1.187 0-.704-.39-1.11-.391-.406-1.032-.406-.39 0-.719.187-.312.172-.5.454l-.765-.094.64-3.438h3.328v.797h-2.671l-.36 1.782q.61-.407 1.266-.407.875 0 1.469.61.609.593.609 1.547 0 .906-.531 1.562-.64.813-1.75.813-.907 0-1.485-.5-.578-.516-.656-1.36zM587.304 312.225v-6.672h.875v5.89h3.297v.782zm8.423-1.562l.843.109q-.187.75-.734 1.156-.547.406-1.39.406-1.063 0-1.688-.656-.61-.656-.61-1.828 0-1.219.625-1.89.625-.688 1.625-.688.985 0 1.594.672.61.656.61 1.86v.218h-3.61q.047.797.453 1.219.407.422 1.016.422.453 0 .766-.235.312-.234.5-.765zm-2.688-1.329h2.703q-.062-.609-.312-.906-.39-.469-1.016-.469-.562 0-.953.375-.375.375-.422 1zm7.72 2.297q-.454.391-.876.547-.422.156-.906.156-.797 0-1.219-.39-.422-.39-.422-1 0-.344.157-.64.156-.298.421-.47.266-.187.594-.28.235-.063.719-.11 1-.125 1.469-.281v-.22q0-.5-.235-.702-.312-.282-.922-.282-.578 0-.859.204-.281.203-.406.718l-.797-.109q.11-.516.36-.828.25-.328.718-.5.469-.172 1.094-.172.625 0 1 .156.39.14.578.36.187.218.25.562.047.203.047.75v1.094q0 1.14.047 1.453.062.297.218.578h-.859q-.125-.25-.172-.594zm-.063-1.828q-.453.172-1.344.297-.5.078-.719.172-.203.094-.312.266-.11.171-.11.39 0 .328.235.547.25.219.734.219.469 0 .828-.203.375-.219.563-.578.125-.266.125-.813zm2.094 2.422v-4.844h.734v.735q.281-.516.516-.672.25-.172.531-.172.422 0 .844.266l-.281.765q-.297-.172-.61-.172-.265 0-.484.157-.203.156-.297.453-.14.437-.14.953v2.531zm3.106 0v-4.844h.75v.688q.531-.797 1.531-.797.438 0 .797.172.375.156.547.406.188.25.266.61.047.218.047.796v2.97h-.828v-2.938q0-.5-.094-.75t-.344-.391q-.234-.156-.562-.156-.516 0-.907.328-.375.328-.375 1.265v2.641zm7.92 0v-6.672h.875v2.735h3.469v-2.735h.89v6.672h-.89v-3.14h-3.469v3.14zm8.409 0v-5.89h-2.204v-.782h5.297v.781H623.1v5.891zm3.963 0v-6.672h1.328l1.594 4.719q.219.672.313.984.109-.359.359-1.062l1.594-4.64h1.187v6.671h-.844v-5.594l-1.953 5.594h-.797l-1.921-5.687v5.687zm7.77 0v-6.672h.876v5.89h3.296v.782zM662.083 312.225h-.813v-5.219q-.296.282-.78.563-.485.281-.86.422v-.797q.687-.328 1.203-.781.516-.454.734-.891h.516zM518.088 353.82h-.812v-5.218q-.297.281-.782.563-.484.28-.859.422v-.797q.688-.328 1.203-.782.516-.453.735-.89h.515zm3.376-3.624q-.516-.188-.766-.531-.25-.344-.25-.828 0-.735.516-1.22.53-.5 1.406-.5.875 0 1.406.516.531.5.531 1.235 0 .453-.25.797-.234.343-.734.53.625.204.937.657.329.438.329 1.063 0 .859-.61 1.437-.61.578-1.594.578-.984 0-1.593-.578-.61-.594-.61-1.469 0-.64.328-1.078.329-.453.954-.61zm-.172-1.39q0 .484.297.78.312.297.796.297.485 0 .782-.296.297-.297.297-.735 0-.453-.313-.75-.312-.312-.766-.312-.468 0-.78.312-.313.297-.313.703zm-.266 3.093q0 .344.156.672.172.328.5.516.328.171.72.171.577 0 .952-.375.39-.375.39-.968 0-.578-.39-.97-.39-.39-.984-.39-.578 0-.969.39-.375.376-.375.954zM587.304 353.82v-6.671h.875v5.89h3.297v.782zm8.423-1.562l.843.11q-.187.75-.734 1.156-.547.406-1.39.406-1.063 0-1.688-.656-.61-.656-.61-1.828 0-1.219.625-1.89.625-.688 1.625-.688.985 0 1.594.672.61.656.61 1.859v.219h-3.61q.047.797.453 1.219.407.421 1.016.421.453 0 .766-.234.312-.234.5-.766zm-2.688-1.328h2.703q-.062-.61-.312-.906-.39-.469-1.016-.469-.562 0-.953.375-.375.375-.422 1zm7.72 2.297q-.454.39-.876.547-.422.156-.906.156-.797 0-1.219-.39-.422-.391-.422-1 0-.344.157-.641.156-.297.421-.469.266-.187.594-.281.235-.062.719-.11 1-.124 1.469-.28v-.22q0-.5-.235-.702-.312-.282-.922-.282-.578 0-.859.203-.281.204-.406.72l-.797-.11q.11-.516.36-.828.25-.328.718-.5.469-.172 1.094-.172.625 0 1 .156.39.14.578.36.187.218.25.562.047.203.047.75v1.094q0 1.14.047 1.453.062.297.218.578h-.859q-.125-.25-.172-.594zm-.063-1.828q-.453.172-1.344.297-.5.078-.719.172-.203.093-.312.265-.11.172-.11.391 0 .328.235.547.25.219.734.219.469 0 .828-.203.375-.22.563-.579.125-.265.125-.812zm2.094 2.422v-4.844h.734v.735q.281-.516.516-.672.25-.172.531-.172.422 0 .844.265l-.281.766q-.297-.172-.61-.172-.265 0-.484.156-.203.157-.297.454-.14.437-.14.953v2.53zm3.106 0v-4.844h.75v.688q.531-.797 1.531-.797.438 0 .797.172.375.156.547.406.188.25.266.61.047.218.047.796v2.969h-.828v-2.938q0-.5-.094-.75t-.344-.39q-.234-.156-.562-.156-.516 0-.907.328-.375.328-.375 1.265v2.64zm12.655-2.344l.89.219q-.281 1.094-1.015 1.672-.72.562-1.75.562-1.094 0-1.766-.437-.672-.438-1.031-1.266-.344-.844-.344-1.797 0-1.047.39-1.812.407-.781 1.141-1.188.735-.406 1.61-.406 1.015 0 1.687.516.688.515.953 1.437l-.86.203q-.233-.734-.687-1.062-.437-.328-1.109-.328-.766 0-1.281.375-.516.359-.735.984-.203.625-.203 1.281 0 .844.25 1.485.25.64.766.953.531.312 1.14.312.735 0 1.25-.422.516-.437.704-1.28zm1.674.203l.828-.078q.062.5.281.828.219.313.672.516.453.203 1.015.203.516 0 .891-.156.39-.156.578-.406.188-.266.188-.579 0-.312-.188-.546-.172-.235-.594-.391-.265-.11-1.187-.328-.922-.219-1.281-.422-.485-.25-.719-.61-.234-.374-.234-.843 0-.5.28-.938.298-.437.845-.672.546-.234 1.234-.234.734 0 1.297.25.578.234.875.703.312.453.328 1.047l-.844.063q-.062-.625-.469-.954-.39-.328-1.156-.328-.797 0-1.172.297-.359.297-.359.703 0 .36.25.594.266.234 1.328.484 1.078.235 1.484.422.579.266.86.688.281.406.281.937 0 .532-.312 1.016-.297.469-.875.734-.563.25-1.282.25-.906 0-1.515-.265-.61-.266-.969-.782-.344-.53-.36-1.203zm6.221 0l.829-.078q.062.5.28.828.22.313.673.516.453.203 1.015.203.516 0 .89-.156.392-.156.579-.406.188-.266.188-.579 0-.312-.188-.546-.172-.235-.594-.391-.265-.11-1.187-.328-.922-.219-1.281-.422-.485-.25-.72-.61-.234-.374-.234-.843 0-.5.282-.938.297-.437.843-.672.547-.234 1.235-.234.734 0 1.297.25.578.234.875.703.312.453.328 1.047l-.844.063q-.062-.625-.469-.954-.39-.328-1.156-.328-.797 0-1.172.297-.36.297-.36.703 0 .36.25.594.266.234 1.329.484 1.078.235 1.484.422.578.266.86.688.28.406.28.937 0 .532-.312 1.016-.296.469-.875.734-.562.25-1.28.25-.907 0-1.516-.265-.61-.266-.97-.782-.343-.53-.359-1.203zM662.083 353.82h-.813v-5.218q-.296.281-.78.563-.485.28-.86.422v-.797q.687-.328 1.203-.782.516-.453.734-.89h.516zM518.088 395.417h-.812v-5.22q-.297.282-.782.563-.484.282-.859.422v-.797q.688-.328 1.203-.78.516-.454.735-.891h.515zm2.235-1.547l.781-.063q.094.547.375.797.297.25.735.25.375 0 .656-.172.297-.172.469-.453.187-.297.312-.781.125-.5.125-1.016 0-.047-.016-.156-.234.39-.671.64-.422.235-.922.235-.828 0-1.407-.594-.562-.61-.562-1.593 0-1.016.594-1.625.593-.625 1.5-.625.656 0 1.187.359.547.344.828 1 .282.64.282 1.875 0 1.266-.282 2.031-.28.766-.828 1.156-.547.391-1.281.391-.781 0-1.281-.422-.5-.437-.594-1.234zm3.344-2.938q0-.718-.375-1.125-.375-.422-.89-.422-.548 0-.954.454-.406.437-.406 1.156 0 .64.375 1.047.39.39.953.39.578 0 .937-.39.36-.407.36-1.11zM587.304 395.417v-6.672h.875v5.89h3.297v.782zm8.423-1.563l.843.11q-.187.75-.734 1.156-.547.406-1.39.406-1.063 0-1.688-.656-.61-.656-.61-1.828 0-1.22.625-1.89.625-.688 1.625-.688.985 0 1.594.671.61.657.61 1.86v.219h-3.61q.047.796.453 1.218.407.422 1.016.422.453 0 .766-.234.312-.235.5-.766zm-2.688-1.328h2.703q-.062-.61-.312-.906-.39-.469-1.016-.469-.562 0-.953.375-.375.375-.422 1zm7.72 2.297q-.454.39-.876.547-.422.156-.906.156-.797 0-1.219-.39-.422-.391-.422-1 0-.344.157-.641.156-.297.421-.469.266-.187.594-.281.235-.063.719-.11 1-.125 1.469-.28v-.22q0-.5-.235-.703-.312-.28-.922-.28-.578 0-.859.202-.281.203-.406.719l-.797-.11q.11-.515.36-.828.25-.328.718-.5.469-.171 1.094-.171.625 0 1 .156.39.14.578.36.187.218.25.562.047.203.047.75v1.093q0 1.141.047 1.454.062.296.218.578h-.859q-.125-.25-.172-.594zm-.063-1.828q-.453.172-1.344.297-.5.078-.719.172-.203.093-.312.265-.11.172-.11.39 0 .329.235.548.25.218.734.218.469 0 .828-.203.375-.218.563-.578.125-.265.125-.812zm2.094 2.422v-4.844h.734v.734q.281-.515.516-.672.25-.171.531-.171.422 0 .844.265l-.281.766q-.297-.172-.61-.172-.265 0-.484.156-.203.156-.297.453-.14.438-.14.953v2.532zm3.106 0v-4.844h.75v.687q.531-.796 1.531-.796.438 0 .797.171.375.157.547.407.188.25.266.61.047.218.047.796v2.969h-.828v-2.938q0-.5-.094-.75t-.344-.39q-.234-.157-.562-.157-.516 0-.907.328-.375.329-.375 1.266v2.64zm7.436-1.89l.797-.11q.031.765.281 1.047.266.28.719.28.328 0 .562-.155.25-.157.344-.407.094-.265.094-.843v-4.594h.875v4.547q0 .843-.203 1.297-.204.453-.641.703-.438.234-1.031.234-.875 0-1.344-.5-.469-.5-.453-1.5zm4.82-.25l.828-.079q.063.5.282.828.218.313.671.516.454.203 1.016.203.516 0 .89-.156.391-.157.579-.407.187-.265.187-.578 0-.312-.187-.547-.172-.234-.594-.39-.266-.11-1.187-.328-.922-.22-1.282-.422-.484-.25-.718-.61-.235-.375-.235-.843 0-.5.281-.938.297-.437.844-.672.547-.234 1.235-.234.734 0 1.296.25.579.234.875.703.313.453.329 1.047l-.844.062q-.063-.625-.469-.953-.39-.328-1.156-.328-.797 0-1.172.297-.36.297-.36.703 0 .36.25.594.266.234 1.329.484 1.078.235 1.484.422.578.266.86.688.28.406.28.937t-.312 1.016q-.297.468-.875.734-.562.25-1.281.25-.906 0-1.516-.266-.609-.265-.968-.78-.344-.532-.36-1.204zM659.005 392.12q0-1.188.234-1.906.25-.72.719-1.11.484-.39 1.219-.39.547 0 .937.218.406.22.672.625.266.407.406 1 .157.578.157 1.563 0 1.172-.235 1.906-.234.719-.719 1.11-.484.39-1.218.39-.97 0-1.516-.687-.656-.829-.656-2.72zm.844 0q0 1.64.375 2.187.39.547.953.547.562 0 .953-.547.39-.547.39-2.187 0-1.64-.39-2.188-.39-.547-.953-.547-.578 0-.907.485-.421.61-.421 2.25z"/><path fill="none" d="M110.83 278.874h311.276v109.89H110.831z"/><path fill="#000" d="M124.659 295.067h-2.985v2.594h.594q.172 0 .235.062.078.063.078.172 0 .094-.078.157-.063.062-.235.062h-1.562q-.157 0-.235-.062-.062-.063-.062-.157 0-.11.062-.172.078-.062.235-.062h.515v-5.375h-.28q-.173 0-.25-.063-.063-.062-.063-.171 0-.094.062-.157.078-.062.25-.062h1.328q.172 0 .235.062.078.063.078.157 0 .109-.078.171-.063.063-.235.063h-.594v2.344h2.985v-2.344h-.594q-.172 0-.25-.063-.062-.062-.062-.171 0-.094.062-.157.078-.062.25-.062h1.328q.172 0 .235.062.078.063.078.157 0 .109-.078.171-.063.063-.235.063h-.281v5.375h.516q.156 0 .218.062.078.063.078.172 0 .094-.078.157-.062.062-.218.062h-1.563q-.172 0-.25-.062-.062-.063-.062-.157 0-.11.062-.172.078-.062.25-.062h.594zm5.304-2.781v5.375h1.156q.172 0 .235.062.078.063.078.172 0 .094-.078.157-.063.062-.235.062h-2.797q-.156 0-.234-.062-.062-.063-.062-.157 0-.11.062-.172.078-.062.234-.062h1.172v-5.375h-1.843v1.562q0 .157-.063.235-.062.062-.156.062-.11 0-.172-.062-.063-.078-.063-.235v-2.015h5.063v2.015q0 .157-.063.235-.062.062-.171.062-.094 0-.157-.062-.062-.078-.062-.235v-1.562zm6.601 0v5.375h1.156q.172 0 .235.062.078.063.078.172 0 .094-.078.157-.063.062-.235.062h-2.797q-.156 0-.234-.062-.062-.063-.062-.157 0-.11.062-.172.078-.062.234-.062h1.172v-5.375h-1.843v1.562q0 .157-.063.235-.062.062-.156.062-.11 0-.172-.062-.063-.078-.063-.235v-2.015h5.063v2.015q0 .157-.063.235-.062.062-.171.062-.094 0-.157-.062-.062-.078-.062-.235v-1.562zm5.398 3.25v2.125h1.547q.156 0 .219.062.078.063.078.172 0 .094-.078.157-.063.062-.22.062H140.9q-.172 0-.235-.062-.062-.063-.062-.157 0-.11.062-.172.063-.062.235-.062h.609v-5.375h-.61q-.171 0-.234-.063-.062-.062-.062-.171 0-.094.062-.157.063-.062.235-.062h2.625q.921 0 1.5.547.593.547.593 1.28 0 .438-.187.798-.188.344-.453.531-.407.313-.844.438-.313.109-.766.109zm0-.453h1.438q.5 0 .937-.219.438-.219.625-.547.203-.328.203-.656 0-.531-.453-.953-.453-.422-1.156-.422h-1.594zm9.601-4.031l-3.625 7.765q-.094.203-.234.203-.094 0-.172-.062-.063-.063-.063-.156 0-.063.063-.172l3.625-7.782q.047-.125.094-.156.062-.031.14-.031.094 0 .156.062.063.063.063.141 0 .063-.047.188zm2.632 6.609h3.47v-.172q0-.172.062-.234.062-.063.156-.063.11 0 .172.063.062.062.062.234v.625h-4.36v-.672q1.376-1.234 2.673-2.515.61-.594.828-.86.234-.281.312-.5.079-.219.079-.422 0-.578-.47-1.031-.452-.453-1.124-.453-.594 0-1.047.344-.453.343-.594.843-.031.125-.078.157-.062.062-.14.062-.094 0-.157-.062-.062-.063-.062-.157 0-.25.28-.687.282-.438.782-.688.5-.265 1.016-.265.844 0 1.453.594.61.578.61 1.328 0 .312-.11.578-.094.25-.344.562-.25.297-.875.922-1.594 1.578-2.594 2.438zm8.445-.844h.203q.297 0 .5.219.22.203.22.516 0 .296-.22.515-.203.203-.5.203h-.203q-.297 0-.515-.203-.22-.219-.22-.515 0-.313.22-.516.218-.219.515-.219zm8.773-2.625v1.11q0 1.453-.703 2.312-.531.656-1.36.656-.406 0-.765-.156-.344-.156-.594-.437-.14-.188-.328-.579-.187-.39-.265-.718-.125-.453-.125-1.078v-1.11q0-1.469.687-2.312.547-.672 1.375-.672.406 0 .75.172.344.156.594.437.156.172.344.578.187.39.265.703.125.47.125 1.094zm-.453.047q0-.625-.187-1.172-.172-.562-.407-.89-.125-.188-.343-.313-.313-.203-.688-.203-.75 0-1.187.781-.422.766-.422 1.797v1q0 .64.172 1.203.187.547.406.875.14.172.344.313.312.187.703.187.75 0 1.172-.765.437-.782.437-1.813zm9.64 3.422h3.468v-.172q0-.172.063-.234.062-.063.156-.063.11 0 .172.063.063.062.063.234v.625h-4.36v-.672q1.375-1.234 2.672-2.515.61-.594.828-.86.235-.281.313-.5.078-.219.078-.422 0-.578-.469-1.03-.453-.454-1.125-.454-.594 0-1.047.344-.453.343-.594.843-.03.125-.078.157-.062.062-.14.062-.094 0-.156-.062-.063-.063-.063-.157 0-.25.281-.687.282-.438.782-.688.5-.265 1.015-.265.844 0 1.453.594.61.578.61 1.328 0 .312-.11.578-.093.25-.343.562-.25.297-.875.922-1.594 1.578-2.594 2.438zm10.616-3.469v1.11q0 1.453-.703 2.312-.53.656-1.36.656-.405 0-.765-.156-.343-.156-.593-.437-.141-.188-.329-.579-.187-.39-.265-.718-.125-.453-.125-1.078v-1.11q0-1.469.687-2.312.547-.672 1.375-.672.407 0 .75.172.344.156.594.437.156.172.344.578.187.39.265.703.125.47.125 1.094zm-.453.047q0-.625-.187-1.172-.172-.562-.406-.89-.125-.188-.344-.313-.313-.203-.688-.203-.75 0-1.187.781-.422.766-.422 1.797v1q0 .64.172 1.203.187.547.406.875.14.172.344.313.312.187.703.187.75 0 1.172-.765.437-.782.437-1.813zm7.055-.047v1.11q0 1.453-.704 2.312-.53.656-1.359.656-.406 0-.766-.156-.343-.156-.593-.437-.141-.188-.328-.579-.188-.39-.266-.718-.125-.453-.125-1.078v-1.11q0-1.469.687-2.312.547-.672 1.375-.672.407 0 .75.172.344.156.594.437.156.172.344.578.187.39.266.703.125.47.125 1.094zm-.454.047q0-.625-.187-1.172-.172-.562-.406-.89-.125-.188-.344-.313-.313-.203-.688-.203-.75 0-1.187.781-.422.766-.422 1.797v1q0 .64.172 1.203.187.547.406.875.14.172.344.313.312.187.703.187.75 0 1.172-.765.437-.782.437-1.813zm14.343.75q0 .906-.375 1.672-.36.766-1 1.203-.64.422-1.375.422-1.094 0-1.922-.922-.828-.922-.828-2.375 0-1.453.828-2.375.828-.922 1.922-.922.735 0 1.375.438.64.422 1 1.187.375.766.375 1.672zm-.453 0q0-1.11-.64-1.984-.641-.875-1.657-.875-.953 0-1.625.843-.672.829-.672 2.016 0 1.25.703 2.047.704.797 1.594.797 1.016 0 1.656-.86.641-.875.641-1.984zm2.836.672v2h.828q.172 0 .234.062.063.063.063.172 0 .094-.063.157-.062.062-.234.062h-1.891q-.156 0-.234-.062-.063-.063-.063-.157 0-.109.063-.172.078-.062.234-.062h.61v-5.375h-.61q-.156 0-.234-.063-.063-.062-.063-.171 0-.094.063-.157.078-.062.234-.062h1.89q.173 0 .235.062.063.063.063.157 0 .109-.063.171-.062.063-.234.063h-.828v2.766l3.109-2.766h-.5q-.156 0-.234-.063-.063-.062-.063-.171 0-.094.063-.157.078-.062.234-.062h1.328q.172 0 .234.062.063.063.063.157 0 .109-.063.171-.062.063-.234.063h-.172l-2.484 2.219q.547.218.906.562.375.328.719.953.187.36.703 1.641h.562q.172 0 .235.062.078.063.078.172 0 .094-.078.157-.063.062-.235.062h-.875q-.703-1.937-1.187-2.484-.484-.563-1.203-.797zM123.362 317.433v7.219h1.094q.156 0 .218.062.079.063.079.172 0 .094-.079.156-.062.063-.218.063h-1.547v-8.125h1.547q.156 0 .218.062.079.063.079.156 0 .11-.079.172-.062.063-.218.063zM136.08 333.842q.265.203.36.39.124.235.124.563v1.938q0 .297.172.484.187.203.437.235.172.015.22.062.077.063.077.172 0 .094-.078.156-.062.063-.203.063-.422 0-.703-.266-.375-.375-.375-.906v-1.938q0-.297-.188-.484-.171-.203-.453-.234-.14-.016-.203-.063-.062-.062-.062-.172 0-.11.062-.156.063-.063.203-.078.282-.031.453-.219.188-.203.188-.5v-1.937q0-.5.312-.829.329-.343.782-.343.125 0 .187.062.078.063.078.156 0 .094-.078.157-.047.062-.219.078-.265.031-.437.234-.172.188-.172.485v1.937q0 .328-.11.547-.109.203-.374.406zm7.085-4.297v1.172h-.672v-1.172zm.016 2.313v4.203h1.765q.172 0 .235.062.078.063.078.172 0 .094-.078.157-.063.062-.235.062h-4q-.156 0-.234-.062-.062-.063-.062-.157 0-.11.062-.172.078-.062.234-.062h1.782v-3.734H141.4q-.157 0-.235-.063-.062-.078-.062-.172 0-.094.062-.156.078-.078.235-.078zm8.57-2.078v6.28h.593q.172 0 .235.063.078.063.078.172 0 .094-.078.157-.063.062-.235.062h-1.062v-.89q-.781 1.062-1.985 1.062-.609 0-1.171-.313-.563-.328-.891-.921-.328-.61-.328-1.25 0-.641.328-1.235.328-.61.89-.937.563-.328 1.172-.328 1.188 0 1.985 1.078v-2.547h-.594q-.172 0-.25-.063-.062-.062-.062-.172 0-.093.062-.156.078-.062.25-.062zm-.47 4.422q0-.86-.577-1.454-.578-.593-1.375-.593-.813 0-1.39.593-.579.594-.579 1.454 0 .843.578 1.437.578.594 1.39.594.798 0 1.376-.594.578-.594.578-1.437zm4.758-2.344h.203q.297 0 .5.219.22.218.22.515 0 .313-.22.531-.203.204-.5.204h-.203q-.297 0-.515-.22-.22-.218-.22-.515 0-.312.22-.515.218-.22.515-.22zm0 3.36h.203q.297 0 .5.218.22.203.22.516 0 .296-.22.515-.203.203-.5.203h-.203q-.297 0-.515-.203-.22-.219-.22-.515 0-.313.22-.516.218-.219.515-.219zm12.062-4.985v2.203q.39-.172.75-.25.375-.078.703-.078.844 0 1.406.594.578.593.578 1.562 0 1.078-.64 1.75-.641.656-1.61.656-.64 0-1.234-.281-.422-.203-.766-.5-.203-.172-.203-.281 0-.11.063-.172.078-.063.156-.063.094 0 .203.094.797.75 1.766.75.78 0 1.296-.531.516-.547.516-1.438 0-.765-.453-1.218-.438-.47-1.125-.47-.703 0-1.406.36-.172.094-.235.094-.109 0-.172-.063-.046-.062-.046-.187v-2.984h3.14q.172 0 .235.062.062.063.062.156 0 .11-.062.172-.063.063-.235.063zm6.945 4.656h1.468l-1.593 2.969q-.157.265-.36.265-.125 0-.219-.093-.093-.094-.093-.219 0-.063.015-.125zm13.17-3.031h2.454q.156 0 .218.078.078.062.078.156t-.078.172q-.062.062-.218.062h-2.454v3q0 .391.313.657.312.25.922.25.453 0 .984-.125.531-.14.828-.313.11-.078.188-.078t.14.078q.063.063.063.156 0 .079-.063.157-.171.172-.843.375-.657.203-1.266.203-.781 0-1.25-.36-.469-.375-.469-1v-3h-.843q-.157 0-.235-.062-.062-.078-.062-.172 0-.094.062-.156.078-.078.235-.078h.843v-1.328q0-.157.063-.22.062-.077.156-.077.11 0 .172.078.062.062.062.219zm7.758-2.313v1.172h-.672v-1.172zm.015 2.313v4.203h1.766q.172 0 .234.062.078.063.078.172 0 .094-.078.157-.062.062-.234.062h-4q-.156 0-.234-.062-.063-.063-.063-.157 0-.11.063-.172.078-.062.234-.062h1.781v-3.734h-1.328q-.156 0-.234-.063-.063-.078-.063-.172 0-.094.063-.156.078-.078.234-.078zm5.43 0h2.453q.156 0 .218.078.079.062.079.156t-.079.172q-.062.062-.218.062h-2.453v3q0 .391.312.657.313.25.922.25.453 0 .984-.125.532-.14.828-.313.11-.078.188-.078t.14.078q.063.063.063.156 0 .079-.062.157-.172.172-.844.375-.656.203-1.266.203-.781 0-1.25-.36-.469-.375-.469-1v-3h-.843q-.157 0-.235-.062-.062-.078-.062-.172 0-.094.062-.156.078-.078.235-.078h.843v-1.328q0-.157.063-.22.062-.077.156-.077.11 0 .172.078.063.062.063.219zm7.757-2.078v6.28h1.766q.171 0 .234.063.078.063.078.172 0 .094-.078.157-.063.062-.234.062h-3.985q-.172 0-.25-.062-.062-.063-.062-.157 0-.11.062-.172.078-.062.25-.062h1.766v-5.828h-1.297q-.172 0-.25-.063-.063-.062-.063-.172 0-.093.063-.156.078-.062.25-.062zm8.804 4.515h-4.594q.125.875.735 1.407.625.53 1.531.53.5 0 1.047-.155.562-.172.906-.438.11-.094.172-.094.094 0 .156.078.063.063.063.157 0 .093-.078.172-.266.265-.922.5-.657.234-1.344.234-1.172 0-1.953-.75-.766-.766-.766-1.844 0-.984.719-1.687.734-.703 1.812-.703 1.11 0 1.813.718.719.719.703 1.875zm-.453-.453q-.125-.75-.703-1.219-.578-.468-1.36-.468-.796 0-1.359.468-.562.454-.703 1.22zm4.523-1.984h.203q.297 0 .5.219.219.218.219.515 0 .313-.219.531-.203.204-.5.204h-.203q-.297 0-.516-.22-.218-.218-.218-.515 0-.312.218-.515.219-.22.516-.22zm0 3.36h.203q.297 0 .5.218.219.203.219.516 0 .296-.219.515-.203.203-.5.203h-.203q-.297 0-.516-.203-.218-.219-.218-.515 0-.313.218-.516.219-.219.516-.219zm11.42-5.329h1.438l-.375 2.61q-.03.203-.125.296-.078.078-.218.078-.125 0-.22-.078-.077-.093-.109-.297zm2.313 0h1.422l-.375 2.61q-.031.203-.125.296-.078.078-.203.078-.14 0-.234-.078-.078-.093-.11-.297zm5.383.797v5.375h3v-1.797q0-.156.062-.219.063-.078.172-.078.094 0 .156.078.063.063.063.219v2.25h-4.985q-.156 0-.234-.062-.063-.063-.063-.157 0-.11.063-.172.078-.062.234-.062h1.078v-5.375h-1.078q-.156 0-.234-.063-.063-.062-.063-.171 0-.094.063-.157.078-.062.234-.062h2.61q.156 0 .218.062.079.063.079.157 0 .109-.079.171-.062.063-.218.063zm9.82 3.61h-4.594q.125.874.734 1.406.625.53 1.531.53.5 0 1.047-.155.563-.172.906-.438.11-.094.172-.094.094 0 .157.078.062.063.062.157 0 .093-.078.172-.266.265-.922.5-.656.234-1.344.234-1.172 0-1.953-.75-.765-.766-.765-1.844 0-.984.718-1.687.735-.703 1.813-.703 1.11 0 1.812.718.72.719.703 1.875zm-.454-.454q-.125-.75-.703-1.219-.578-.468-1.36-.468-.796 0-1.359.468-.562.454-.703 1.22zm5.914 2.672v-.656q-.984.828-2.094.828-.812 0-1.265-.406-.454-.407-.454-1 0-.657.594-1.141.61-.5 1.75-.5.313 0 .672.047.375.031.797.125v-.734q0-.375-.344-.641-.344-.281-1.031-.281-.516 0-1.469.312-.172.047-.219.047-.093 0-.156-.062-.062-.063-.062-.157 0-.093.062-.14.063-.094.61-.235.828-.218 1.265-.218.844 0 1.313.421.484.422.484.954v2.984h.61q.171 0 .234.062.078.063.078.172 0 .094-.078.157-.063.062-.235.062zm0-2.25q-.313-.094-.672-.125-.344-.047-.734-.047-.985 0-1.547.422-.422.312-.422.766 0 .406.312.687.329.266.938.266.594 0 1.094-.219.5-.234 1.03-.75zm4.773-2.406v1.14q.875-.796 1.312-1.015.438-.235.813-.235.406 0 .75.282.344.265.344.406 0 .094-.079.172-.062.062-.156.062-.062 0-.093-.015-.032-.032-.141-.125-.188-.188-.328-.25-.14-.078-.266-.078-.297 0-.719.234-.421.234-1.437 1.156v2.469h2q.156 0 .219.062.078.063.078.172 0 .094-.078.157-.063.062-.22.062h-3.546q-.156 0-.234-.062-.063-.063-.063-.157 0-.093.063-.156.062-.062.234-.062h1.094v-3.75h-.828q-.172 0-.25-.063-.063-.078-.063-.172 0-.093.063-.156.078-.078.25-.078zm5.679 0v.687q.469-.484.844-.656.39-.187.875-.187.515 0 .937.218.297.157.532.532.25.375.25.765v2.844h.39q.156 0 .219.062.078.063.078.172 0 .094-.078.157-.063.062-.219.062h-1.219q-.156 0-.234-.062-.062-.063-.062-.157 0-.11.062-.172.078-.062.234-.062h.375v-2.766q0-.484-.343-.812-.344-.328-.938-.328-.437 0-.765.187-.329.172-.938.89v2.829h.516q.156 0 .218.062.079.063.079.172 0 .094-.079.157-.062.062-.218.062h-1.485q-.156 0-.234-.062-.063-.063-.063-.157 0-.11.063-.172.078-.062.234-.062h.516v-3.734h-.375q-.172 0-.25-.063-.063-.078-.063-.172 0-.094.063-.156.078-.078.25-.078zm16.187 1.61H280.1v2.593h.594q.172 0 .234.062.078.063.078.172 0 .094-.078.157-.062.062-.234.062h-1.563q-.156 0-.234-.062-.062-.063-.062-.157 0-.11.062-.172.078-.062.234-.062h.516v-5.375h-.281q-.172 0-.25-.063-.063-.062-.063-.171 0-.094.063-.157.078-.062.25-.062h1.328q.172 0 .234.062.078.063.078.157 0 .109-.078.171-.062.063-.234.063h-.594v2.344h2.985v-2.344h-.594q-.172 0-.25-.063-.063-.062-.063-.171 0-.094.063-.157.078-.062.25-.062h1.328q.172 0 .234.062.078.063.078.157 0 .109-.078.171-.062.063-.234.063h-.281v5.375h.515q.157 0 .22.062.077.063.077.172 0 .094-.078.157-.062.062-.219.062h-1.562q-.172 0-.25-.062-.063-.063-.063-.157 0-.11.063-.172.078-.062.25-.062h.594zm5.304-2.782v5.375h1.156q.172 0 .234.062.078.063.078.172 0 .094-.078.157-.062.062-.234.062h-2.797q-.156 0-.234-.062-.063-.063-.063-.157 0-.11.063-.172.078-.062.234-.062h1.172v-5.375h-1.844v1.562q0 .157-.062.235-.063.062-.156.062-.11 0-.172-.062-.063-.078-.063-.235v-2.015h5.063v2.015q0 .157-.063.235-.062.062-.172.062-.093 0-.156-.062-.062-.078-.062-.235v-1.562zm6.663 3.937h-.515l-1.735-3.937h-.078v5.375h.828q.157 0 .22.062.077.063.077.172 0 .094-.078.157-.062.062-.219.062h-1.656q-.172 0-.25-.062-.062-.063-.062-.157 0-.11.062-.172.078-.062.25-.062h.375v-5.375h-.281q-.172 0-.25-.063-.063-.062-.063-.171 0-.094.063-.157.078-.062.25-.062h1.11l1.702 3.89 1.672-3.89h1.11q.171 0 .234.062.078.063.078.157 0 .109-.078.171-.063.063-.234.063h-.282v5.375h.375q.172 0 .235.062.078.063.078.172 0 .094-.078.157-.063.062-.235.062h-1.656q-.156 0-.234-.062-.063-.063-.063-.157 0-.11.063-.172.078-.062.234-.062h.828v-5.375h-.093zm5.523-3.937v5.375h3v-1.797q0-.156.063-.219.062-.078.172-.078.093 0 .156.078.062.063.062.219v2.25h-4.984q-.156 0-.234-.062-.063-.063-.063-.157 0-.11.063-.172.078-.062.234-.062h1.078v-5.375h-1.078q-.156 0-.234-.063-.063-.062-.063-.171 0-.094.063-.157.078-.062.234-.062h2.61q.156 0 .218.062.078.063.078.157 0 .109-.078.171-.062.063-.219.063zm5.508-.797h1.437l-.375 2.61q-.031.203-.125.296-.078.078-.219.078-.125 0-.218-.078-.078-.093-.11-.297zm2.312 0h1.422l-.375 2.61q-.031.203-.125.296-.078.078-.203.078-.14 0-.235-.078-.078-.093-.109-.297zm5.273 5h1.469l-1.594 2.969q-.156.265-.36.265-.124 0-.218-.093-.094-.094-.094-.219 0-.063.016-.125zm16.312-5.11v6.282h.593q.172 0 .235.062.078.063.078.172 0 .094-.078.157-.063.062-.235.062h-1.062v-.89q-.781 1.062-1.985 1.062-.609 0-1.171-.313-.563-.328-.891-.921-.328-.61-.328-1.25 0-.641.328-1.235.328-.61.89-.937.563-.328 1.172-.328 1.188 0 1.985 1.078v-2.547h-.594q-.172 0-.25-.063-.062-.062-.062-.172 0-.093.062-.156.078-.062.25-.062zm-.47 4.423q0-.86-.577-1.454-.578-.593-1.375-.593-.813 0-1.39.593-.579.594-.579 1.454 0 .843.578 1.437.578.594 1.39.594.798 0 1.376-.594.578-.594.578-1.437zm7.383 0q0 1.03-.75 1.765-.734.719-1.781.719t-1.781-.734q-.735-.735-.735-1.75 0-1.032.735-1.766.734-.734 1.78-.734 1.048 0 1.782.734.75.719.75 1.766zm-.469 0q0-.844-.609-1.438-.594-.61-1.453-.61-.86 0-1.469.61-.594.594-.594 1.438 0 .828.594 1.437.61.594 1.469.594.86 0 1.453-.594.61-.594.61-1.437zm3.086-2.344v.687q.469-.484.844-.656.39-.187.875-.187.515 0 .937.218.297.157.531.532.25.375.25.765v2.844h.391q.156 0 .219.062.078.063.078.172 0 .094-.078.157-.063.062-.219.062h-1.219q-.156 0-.234-.062-.063-.063-.063-.157 0-.11.063-.172.078-.062.234-.062h.375v-2.766q0-.484-.344-.812-.343-.328-.937-.328-.438 0-.766.187-.328.172-.937.89v2.829h.515q.157 0 .22.062.077.063.077.172 0 .094-.078.157-.062.062-.219.062h-1.484q-.156 0-.234-.062-.063-.063-.063-.157 0-.11.063-.172.078-.062.234-.062h.516v-3.734h-.375q-.172 0-.25-.063-.063-.078-.063-.172 0-.094.063-.156.078-.078.25-.078zm10.492 2.437h-4.594q.125.875.734 1.407.625.53 1.531.53.5 0 1.047-.155.563-.172.907-.438.109-.094.171-.094.094 0 .157.078.062.063.062.157 0 .093-.078.172-.266.265-.922.5-.656.234-1.344.234-1.171 0-1.953-.75-.765-.766-.765-1.844 0-.984.718-1.687.735-.703 1.813-.703 1.11 0 1.812.718.72.719.704 1.875zm-.454-.453q-.125-.75-.703-1.219-.578-.468-1.36-.468-.796 0-1.358.468-.563.454-.704 1.22zm4.523-1.984h.203q.297 0 .5.219.22.218.22.515 0 .313-.22.531-.203.204-.5.204h-.203q-.297 0-.515-.22-.219-.218-.219-.515 0-.312.219-.515.218-.22.515-.22zm0 3.36h.203q.297 0 .5.218.22.203.22.516 0 .296-.22.515-.203.203-.5.203h-.203q-.297 0-.515-.203-.219-.219-.219-.515 0-.313.219-.516.218-.219.515-.219zm12.374-3.36h2.454q.156 0 .218.078.078.062.078.156t-.078.172q-.062.062-.218.062h-2.454v3q0 .391.313.657.312.25.922.25.453 0 .984-.125.531-.14.828-.313.11-.078.188-.078t.14.078q.063.063.063.156 0 .079-.063.157-.171.172-.843.375-.657.203-1.266.203-.781 0-1.25-.36-.469-.375-.469-1v-3h-.843q-.157 0-.235-.062-.062-.078-.062-.172 0-.094.062-.156.078-.078.235-.078h.843v-1.328q0-.157.063-.22.062-.077.156-.077.11 0 .172.078.062.062.062.219zm6.992 0v1.14q.875-.796 1.313-1.015.437-.235.812-.235.406 0 .75.282.344.265.344.406 0 .094-.078.172-.063.062-.157.062-.062 0-.093-.015-.031-.032-.14-.125-.188-.188-.329-.25-.14-.078-.266-.078-.296 0-.718.234t-1.438 1.156v2.469h2q.156 0 .219.062.078.063.078.172 0 .094-.078.157-.063.062-.219.062h-3.547q-.156 0-.234-.062-.063-.063-.063-.157 0-.093.063-.156.062-.062.234-.062h1.094v-3.75h-.828q-.172 0-.25-.063-.063-.078-.063-.172 0-.093.063-.156.078-.078.25-.078zm8.68 4.656v-.656q-.923.828-2 .828-.657 0-1-.36-.454-.468-.454-1.093v-2.906h-.594q-.171 0-.25-.063-.062-.078-.062-.172 0-.094.062-.156.079-.078.25-.078h1.047v3.375q0 .437.282.719.28.28.703.28 1.093 0 2.015-1v-2.905h-.828q-.172 0-.234-.063-.063-.078-.063-.172 0-.094.063-.156.062-.078.234-.078h1.281v4.203h.375q.172 0 .235.062.078.063.078.172 0 .094-.078.157-.063.062-.235.062zm7.491-2.219h-4.594q.125.875.735 1.407.625.53 1.53.53.5 0 1.048-.155.562-.172.906-.438.11-.094.172-.094.094 0 .156.078.063.063.063.157 0 .093-.078.172-.266.265-.922.5-.657.234-1.344.234-1.172 0-1.953-.75-.766-.766-.766-1.844 0-.984.719-1.687.734-.703 1.812-.703 1.11 0 1.813.718.719.719.703 1.875zm-.453-.453q-.125-.75-.703-1.219-.578-.468-1.36-.468-.797 0-1.359.468-.563.454-.703 1.22zm4.882 0q-.265-.203-.36-.39-.124-.235-.124-.563v-1.937q0-.297-.188-.5-.172-.204-.437-.22-.172-.015-.219-.062-.062-.078-.062-.172 0-.093.062-.156.063-.062.203-.062.438 0 .703.265.39.36.39.907v1.937q0 .297.173.5.187.188.453.219.156.015.219.078.062.047.062.156 0 .11-.062.172-.063.047-.22.062-.265.032-.452.235-.172.187-.172.484v1.938q0 .5-.328.828-.313.344-.766.344-.14 0-.203-.063-.062-.062-.062-.156 0-.11.062-.172.047-.047.219-.063.281-.03.453-.234.172-.187.172-.484v-1.938q0-.328.11-.531.109-.219.374-.422zm5.445 1.047h1.469l-1.594 2.969q-.156.265-.36.265-.124 0-.218-.093-.094-.094-.094-.219 0-.063.016-.125zM136.08 346.642q.265.203.36.39.124.235.124.563v1.938q0 .297.172.484.187.203.437.235.172.015.22.062.077.063.077.172 0 .094-.078.156-.062.063-.203.063-.422 0-.703-.266-.375-.375-.375-.906v-1.938q0-.297-.188-.484-.171-.203-.453-.234-.14-.016-.203-.063-.062-.062-.062-.172 0-.11.062-.156.063-.063.203-.078.282-.031.453-.219.188-.203.188-.5v-1.937q0-.5.312-.829.329-.343.782-.343.125 0 .187.062.078.063.078.156 0 .094-.078.157-.047.062-.219.078-.265.031-.437.234-.172.188-.172.485v1.937q0 .328-.11.547-.109.203-.374.406zm7.085-4.297v1.172h-.672v-1.172zm.016 2.313v4.203h1.765q.172 0 .235.062.078.063.078.172 0 .094-.078.157-.063.062-.235.062h-4q-.156 0-.234-.062-.062-.063-.062-.157 0-.11.062-.172.078-.062.234-.062h1.782v-3.734H141.4q-.157 0-.235-.063-.062-.078-.062-.172 0-.094.062-.156.078-.078.235-.078zm8.57-2.078v6.28h.593q.172 0 .235.063.078.063.078.172 0 .094-.078.157-.063.062-.235.062h-1.062v-.89q-.781 1.062-1.985 1.062-.609 0-1.171-.313-.563-.328-.891-.921-.328-.61-.328-1.25 0-.641.328-1.235.328-.61.89-.937.563-.328 1.172-.328 1.188 0 1.985 1.078v-2.547h-.594q-.172 0-.25-.063-.062-.062-.062-.172 0-.093.062-.156.078-.062.25-.062zm-.47 4.422q0-.86-.577-1.454-.578-.593-1.375-.593-.813 0-1.39.593-.579.594-.579 1.454 0 .843.578 1.437.578.594 1.39.594.798 0 1.376-.594.578-.594.578-1.437zm4.758-2.344h.203q.297 0 .5.219.22.218.22.515 0 .313-.22.531-.203.204-.5.204h-.203q-.297 0-.515-.22-.22-.218-.22-.515 0-.312.22-.515.218-.22.515-.22zm0 3.36h.203q.297 0 .5.218.22.203.22.516 0 .296-.22.515-.203.203-.5.203h-.203q-.297 0-.515-.203-.22-.219-.22-.515 0-.313.22-.516.218-.219.515-.219zm13.53-5.532v6.375h1.547q.157 0 .22.062.077.063.077.172 0 .094-.078.157-.062.062-.219.062h-3.547q-.171 0-.25-.062-.062-.063-.062-.157 0-.11.062-.172.079-.062.25-.062h1.547v-5.75l-1.484.453q-.094.031-.156.031-.078 0-.14-.062-.063-.063-.063-.157 0-.078.046-.156.047-.047.188-.093zm7.305 3.328q.562.281.843.734.282.438.282.954 0 .796-.61 1.39-.593.578-1.453.578-.86 0-1.469-.578-.593-.594-.593-1.39 0-.516.28-.954.298-.453.876-.734-.5-.281-.719-.594-.312-.422-.312-.953 0-.75.562-1.297.578-.562 1.375-.562.813 0 1.375.562.578.547.578 1.297 0 .531-.312.953-.219.313-.703.594zm.562-1.531q0-.578-.437-1-.438-.422-1.063-.422t-1.062.422q-.422.422-.422 1 0 .515.422.922.437.39 1.062.39.64 0 1.063-.39.437-.407.437-.922zm.125 3.234q0-.594-.469-1.031-.468-.453-1.156-.453-.687 0-1.156.453-.453.437-.453 1.016 0 .625.469 1.078.468.437 1.14.437.688 0 1.156-.437.47-.453.47-1.063zm4.086.172h1.468l-1.593 2.969q-.157.265-.36.265-.125 0-.219-.093-.093-.094-.093-.22 0-.062.015-.124zm13.17-3.031h2.454q.156 0 .218.078.078.062.078.156t-.078.172q-.062.062-.218.062h-2.454v3q0 .391.313.657.313.25.922.25.453 0 .984-.125.531-.14.828-.313.11-.078.188-.078t.14.078q.063.063.063.156 0 .079-.063.157-.171.172-.843.375-.656.203-1.266.203-.781 0-1.25-.36-.469-.375-.469-1v-3h-.843q-.157 0-.235-.062-.062-.078-.062-.172 0-.094.062-.156.078-.078.235-.078h.843v-1.328q0-.157.063-.22.062-.077.156-.077.11 0 .172.078.063.062.063.219zm7.758-2.313v1.172h-.672v-1.172zm.015 2.313v4.203h1.766q.172 0 .234.062.079.063.079.172 0 .094-.079.157-.062.062-.234.062h-4q-.156 0-.234-.062-.063-.063-.063-.157 0-.11.063-.172.078-.062.234-.062h1.781v-3.734h-1.328q-.156 0-.234-.063-.063-.078-.063-.172 0-.094.063-.156.078-.078.234-.078zm5.43 0h2.453q.156 0 .219.078.078.062.078.156t-.078.172q-.063.062-.22.062h-2.452v3q0 .391.312.657.313.25.922.25.453 0 .984-.125.532-.14.829-.313.109-.078.187-.078t.14.078q.063.063.063.156 0 .079-.062.157-.172.172-.844.375-.656.203-1.266.203-.781 0-1.25-.36-.468-.375-.468-1v-3h-.844q-.156 0-.235-.062-.062-.078-.062-.172 0-.094.062-.156.078-.078.235-.078h.844v-1.328q0-.157.062-.22.063-.077.156-.077.11 0 .172.078.063.062.063.219zm7.757-2.078v6.28h1.766q.171 0 .234.063.078.063.078.172 0 .094-.078.157-.063.062-.234.062h-3.985q-.172 0-.25-.062-.062-.063-.062-.157 0-.11.062-.172.078-.062.25-.062h1.766v-5.828h-1.297q-.172 0-.25-.063-.063-.062-.063-.172 0-.093.063-.156.078-.062.25-.062zm8.804 4.515h-4.594q.125.875.735 1.407.625.53 1.531.53.5 0 1.047-.155.562-.172.906-.438.11-.094.172-.094.094 0 .156.078.063.063.063.157 0 .093-.078.172-.266.265-.922.5-.656.234-1.344.234-1.172 0-1.953-.75-.766-.766-.766-1.844 0-.984.72-1.687.733-.703 1.812-.703 1.109 0 1.812.718.719.719.703 1.875zm-.453-.453q-.125-.75-.703-1.219-.578-.468-1.36-.468-.796 0-1.359.468-.562.454-.703 1.22zm4.523-1.984h.203q.297 0 .5.219.219.218.219.515 0 .313-.219.531-.203.204-.5.204h-.203q-.297 0-.516-.22-.218-.218-.218-.515 0-.312.218-.515.22-.22.516-.22zm0 3.36h.203q.297 0 .5.218.219.203.219.516 0 .296-.219.515-.203.203-.5.203h-.203q-.297 0-.516-.203-.218-.219-.218-.515 0-.313.218-.516.22-.219.516-.219zm11.42-5.329h1.438l-.375 2.61q-.03.203-.125.296-.078.078-.218.078-.125 0-.22-.078-.077-.093-.108-.297zm2.313 0h1.422l-.375 2.61q-.03.203-.125.296-.078.078-.203.078-.14 0-.234-.078-.078-.093-.11-.297zm5.383.797v5.375h3v-1.797q0-.156.062-.219.063-.078.172-.078.094 0 .156.078.063.063.063.219v2.25h-4.985q-.156 0-.234-.062-.062-.063-.062-.157 0-.11.062-.172.078-.062.234-.062h1.079v-5.375h-1.079q-.156 0-.234-.063-.062-.062-.062-.171 0-.094.062-.157.078-.062.234-.062h2.61q.156 0 .219.062.078.063.078.157 0 .109-.078.171-.063.063-.22.063zm9.82 3.61h-4.594q.125.874.734 1.406.625.53 1.531.53.5 0 1.047-.155.563-.172.907-.438.109-.094.171-.094.094 0 .157.078.062.063.062.157 0 .093-.078.172-.266.265-.922.5-.656.234-1.344.234-1.171 0-1.953-.75-.765-.766-.765-1.844 0-.984.718-1.687.735-.703 1.813-.703 1.11 0 1.812.718.72.719.704 1.875zm-.454-.454q-.125-.75-.703-1.219-.578-.468-1.36-.468-.796 0-1.358.468-.563.454-.704 1.22zm5.914 2.672v-.656q-.984.828-2.094.828-.812 0-1.265-.406-.454-.407-.454-1 0-.657.594-1.141.61-.5 1.75-.5.313 0 .672.047.375.031.797.125v-.734q0-.375-.344-.641-.344-.281-1.031-.281-.516 0-1.469.312-.172.047-.219.047-.093 0-.156-.062-.062-.063-.062-.157 0-.093.062-.14.063-.094.61-.235.828-.218 1.265-.218.844 0 1.313.421.484.422.484.954v2.984h.61q.171 0 .234.062.078.063.078.172 0 .094-.078.157-.063.062-.235.062zm0-2.25q-.313-.094-.672-.125-.344-.047-.734-.047-.985 0-1.547.422-.422.312-.422.766 0 .406.312.687.329.266.938.266.594 0 1.094-.219.5-.234 1.031-.75zm4.773-2.406v1.14q.875-.796 1.312-1.015.438-.235.813-.235.406 0 .75.282.344.265.344.406 0 .094-.078.172-.063.062-.157.062-.062 0-.093-.015-.032-.032-.141-.125-.187-.188-.328-.25-.14-.078-.266-.078-.297 0-.718.234-.422.234-1.438 1.156v2.469h2q.156 0 .219.062.078.063.078.172 0 .094-.078.157-.063.062-.219.062h-3.547q-.156 0-.234-.062-.063-.063-.063-.157 0-.093.063-.156.062-.062.234-.062h1.094v-3.75h-.828q-.172 0-.25-.063-.063-.078-.063-.172 0-.094.063-.156.078-.078.25-.078zm5.68 0v.687q.468-.484.843-.656.39-.187.875-.187.516 0 .937.218.297.157.532.532.25.375.25.765v2.844h.39q.157 0 .219.062.078.063.078.172 0 .094-.078.157-.062.062-.219.062h-1.218q-.157 0-.235-.062-.062-.063-.062-.157 0-.11.062-.172.078-.062.235-.062h.375v-2.766q0-.484-.344-.812-.344-.328-.938-.328-.437 0-.765.187-.328.172-.938.89v2.829h.516q.156 0 .219.062.078.063.078.172 0 .094-.078.157-.063.062-.22.062h-1.484q-.156 0-.234-.062-.062-.063-.062-.157 0-.11.062-.172.078-.062.234-.062h.516v-3.734h-.375q-.172 0-.25-.063-.062-.078-.062-.172 0-.094.062-.156.078-.078.25-.078zm16.639-1.016v-.312q0-.157.062-.22.063-.077.172-.077.094 0 .156.078.063.062.063.219v1.25q0 .172-.063.25-.062.062-.156.062t-.156-.062q-.063-.078-.078-.22-.016-.452-.485-.796-.625-.484-1.421-.484-.516 0-.985.234-.344.172-.547.406-.343.422-.562.938-.14.375-.14.844v.796q0 1 .718 1.75.734.735 1.703.735.578 0 1.031-.25.47-.25.89-.766.095-.11.204-.11.11 0 .156.063.063.063.063.157 0 .125-.235.375-.437.484-.984.734-.547.25-1.11.25-.5 0-1-.188-.39-.14-.64-.328-.25-.203-.625-.656-.36-.469-.5-.844-.125-.39-.125-.86v-.921q0-.672.344-1.36.36-.702.984-1.062.625-.375 1.344-.375 1.125 0 1.922.75zm6.241-.156v-.156q0-.157.047-.22.063-.077.172-.077.11 0 .156.078.063.062.063.219v1.156q0 .156-.063.234-.046.063-.156.063-.093 0-.156-.063-.063-.062-.063-.218-.03-.454-.468-.813-.438-.36-1.157-.36-.734 0-1.187.391-.438.39-.438.907 0 .265.125.484.125.219.329.36.203.14.453.218.265.078.812.172.922.156 1.266.312.469.204.703.579.25.375.25.875 0 .78-.625 1.328-.61.53-1.656.53-1.172 0-1.89-.733v.265q0 .156-.063.235-.047.062-.157.062-.093 0-.156-.062-.062-.079-.062-.235v-1.25q0-.172.062-.234.063-.078.156-.078.094 0 .157.078.062.062.062.203.031.5.531.906.5.39 1.36.39.843 0 1.328-.421.5-.422.5-1 0-.36-.188-.625-.187-.281-.562-.438-.25-.125-1.078-.265-1.11-.188-1.61-.563-.5-.39-.5-1.11 0-.702.563-1.202.578-.516 1.5-.516.953 0 1.64.594zm6.602 0v-.156q0-.157.046-.22.063-.077.172-.077.11 0 .157.078.062.062.062.219v1.156q0 .156-.062.234-.047.063-.157.063-.093 0-.156-.063-.062-.062-.062-.218-.032-.454-.47-.813-.437-.36-1.155-.36-.735 0-1.188.391-.437.39-.437.907 0 .265.125.484.125.219.328.36.203.14.453.218.265.078.812.172.922.156 1.266.312.469.204.703.579.25.375.25.875 0 .78-.625 1.328-.61.53-1.656.53-1.172 0-1.89-.733v.265q0 .156-.063.235-.047.062-.157.062-.093 0-.156-.062-.062-.079-.062-.235v-1.25q0-.172.062-.234.063-.078.156-.078.094 0 .157.078.062.062.062.203.031.5.531.906.5.39 1.36.39.844 0 1.328-.421.5-.422.5-1 0-.36-.188-.625-.187-.281-.562-.438-.25-.125-1.078-.265-1.11-.188-1.61-.563-.5-.39-.5-1.11 0-.702.563-1.202.578-.516 1.5-.516.953 0 1.64.594zm3.1-.797h1.438l-.375 2.61q-.031.203-.125.296-.078.078-.219.078-.125 0-.218-.078-.078-.093-.11-.297zm2.313 0h1.422l-.375 2.61q-.031.203-.125.296-.078.078-.203.078-.14 0-.235-.078-.078-.093-.109-.297zm5.273 5h1.469l-1.594 2.969q-.156.265-.36.265-.124 0-.218-.093-.094-.094-.094-.22 0-.062.016-.124zm16.312-5.11v6.282h.593q.172 0 .235.062.078.063.078.172 0 .094-.078.157-.063.062-.235.062h-1.062v-.89q-.781 1.062-1.985 1.062-.609 0-1.171-.313-.563-.328-.891-.921-.328-.61-.328-1.25 0-.641.328-1.235.328-.61.89-.937.563-.328 1.172-.328 1.188 0 1.985 1.078v-2.547h-.594q-.172 0-.25-.063-.062-.062-.062-.172 0-.093.062-.156.078-.062.25-.062zm-.47 4.423q0-.86-.577-1.454-.578-.593-1.375-.593-.813 0-1.39.593-.579.594-.579 1.454 0 .843.578 1.437.578.594 1.39.594.798 0 1.376-.594.578-.594.578-1.437zm7.383 0q0 1.03-.75 1.765-.734.719-1.781.719t-1.781-.734q-.735-.735-.735-1.75 0-1.032.735-1.766.734-.734 1.78-.734 1.048 0 1.782.734.75.719.75 1.766zm-.469 0q0-.844-.609-1.438-.594-.61-1.453-.61-.86 0-1.469.61-.594.594-.594 1.438 0 .828.594 1.437.61.594 1.469.594.86 0 1.453-.594.61-.594.61-1.437zm3.086-2.344v.687q.469-.484.844-.656.39-.187.875-.187.515 0 .937.218.297.157.531.532.25.375.25.765v2.844h.391q.156 0 .219.062.078.063.078.172 0 .094-.078.157-.063.062-.219.062h-1.219q-.156 0-.234-.062-.063-.063-.063-.157 0-.11.063-.172.078-.062.234-.062h.375v-2.766q0-.484-.344-.812-.343-.328-.937-.328-.438 0-.766.187-.328.172-.937.89v2.829h.515q.157 0 .22.062.077.063.077.172 0 .094-.078.157-.062.062-.219.062h-1.484q-.156 0-.234-.062-.063-.063-.063-.157 0-.11.063-.172.078-.062.234-.062h.516v-3.734h-.375q-.172 0-.25-.063-.063-.078-.063-.172 0-.094.063-.156.078-.078.25-.078zm10.492 2.437h-4.594q.125.875.734 1.407.625.53 1.531.53.5 0 1.047-.155.563-.172.907-.438.109-.094.171-.094.094 0 .157.078.062.063.062.157 0 .093-.078.172-.266.265-.922.5-.656.234-1.344.234-1.171 0-1.953-.75-.765-.766-.765-1.844 0-.984.718-1.687.735-.703 1.813-.703 1.11 0 1.812.718.72.719.704 1.875zm-.454-.453q-.125-.75-.703-1.219-.578-.468-1.36-.468-.796 0-1.358.468-.563.454-.704 1.22zm4.523-1.984h.204q.296 0 .5.219.218.218.218.515 0 .313-.218.531-.204.204-.5.204h-.204q-.296 0-.515-.22-.219-.218-.219-.515 0-.312.219-.515.219-.22.515-.22zm0 3.36h.204q.296 0 .5.218.218.203.218.516 0 .296-.218.515-.204.203-.5.203h-.204q-.296 0-.515-.203-.219-.219-.219-.515 0-.313.219-.516.219-.219.515-.219zm12.374-3.36h2.454q.156 0 .218.078.078.062.078.156t-.078.172q-.062.062-.218.062h-2.454v3q0 .391.313.657.312.25.922.25.453 0 .984-.125.531-.14.828-.313.11-.078.188-.078t.14.078q.063.063.063.156 0 .079-.063.157-.171.172-.843.375-.657.203-1.266.203-.781 0-1.25-.36-.469-.375-.469-1v-3h-.843q-.157 0-.235-.062-.062-.078-.062-.172 0-.094.062-.156.078-.078.235-.078h.843v-1.328q0-.157.063-.22.062-.077.156-.077.11 0 .172.078.062.062.062.219zm6.992 0v1.14q.875-.796 1.313-1.015.437-.235.812-.235.406 0 .75.282.344.265.344.406 0 .094-.078.172-.063.062-.156.062-.063 0-.094-.015-.031-.032-.14-.125-.188-.188-.329-.25-.14-.078-.266-.078-.296 0-.718.234t-1.438 1.156v2.469h2q.156 0 .219.062.078.063.078.172 0 .094-.078.157-.063.062-.219.062h-3.547q-.156 0-.234-.062-.063-.063-.063-.157 0-.093.063-.156.062-.062.234-.062h1.094v-3.75h-.828q-.172 0-.25-.063-.063-.078-.063-.172 0-.094.063-.156.078-.078.25-.078zm8.68 4.656v-.656q-.923.828-2 .828-.657 0-1-.36-.454-.468-.454-1.093v-2.906h-.594q-.171 0-.25-.063-.062-.078-.062-.172 0-.094.062-.156.079-.078.25-.078h1.047v3.375q0 .437.282.719.28.28.703.28 1.093 0 2.015-1v-2.905h-.828q-.172 0-.234-.063-.063-.078-.063-.172 0-.094.063-.156.062-.078.234-.078h1.281v4.203h.375q.172 0 .235.062.078.063.078.172 0 .094-.078.157-.063.062-.235.062zm7.491-2.219h-4.594q.125.875.735 1.407.625.53 1.53.53.5 0 1.048-.155.562-.172.906-.438.11-.094.172-.094.094 0 .156.078.063.063.063.157 0 .093-.078.172-.266.265-.922.5-.657.234-1.344.234-1.172 0-1.953-.75-.766-.766-.766-1.844 0-.984.719-1.687.734-.703 1.812-.703 1.11 0 1.813.718.719.719.703 1.875zm-.453-.453q-.125-.75-.703-1.219-.578-.468-1.36-.468-.797 0-1.359.468-.563.454-.703 1.22zm4.882 0q-.265-.203-.36-.39-.124-.235-.124-.563v-1.937q0-.297-.188-.5-.172-.204-.437-.22-.172-.015-.219-.062-.062-.078-.062-.172 0-.093.062-.156.063-.062.203-.062.438 0 .703.265.39.36.39.907v1.937q0 .297.173.5.187.188.453.219.156.015.219.078.062.047.062.156 0 .11-.062.172-.063.047-.22.062-.265.032-.452.235-.172.187-.172.484v1.938q0 .5-.328.828-.313.344-.766.344-.14 0-.203-.063-.062-.062-.062-.156 0-.11.062-.172.047-.047.219-.063.281-.03.453-.234.172-.187.172-.484v-1.938q0-.328.11-.531.109-.219.374-.422zm5.445 1.047h1.469l-1.594 2.969q-.156.265-.36.265-.124 0-.218-.093-.094-.094-.094-.22 0-.062.016-.124zM136.08 359.442q.265.203.36.39.124.235.124.563v1.938q0 .297.172.484.187.203.437.234.172.016.22.063.077.063.077.172 0 .094-.078.156-.062.063-.203.063-.422 0-.703-.266-.375-.375-.375-.906v-1.938q0-.297-.188-.484-.171-.203-.453-.235-.14-.015-.203-.062-.062-.063-.062-.172 0-.11.062-.156.063-.063.203-.078.282-.031.453-.219.188-.203.188-.5v-1.937q0-.5.312-.829.329-.343.782-.343.125 0 .187.062.078.063.078.156 0 .094-.078.157-.047.062-.219.078-.265.03-.437.234-.172.188-.172.484v1.938q0 .328-.11.547-.109.203-.374.406zm7.085-4.297v1.172h-.672v-1.172zm.016 2.313v4.203h1.765q.172 0 .235.062.078.063.078.172 0 .094-.078.156-.063.063-.235.063h-4q-.156 0-.234-.063-.062-.062-.062-.156 0-.11.062-.172.078-.062.234-.062h1.782v-3.735H141.4q-.157 0-.235-.062-.062-.078-.062-.172 0-.094.062-.156.078-.078.235-.078zm8.57-2.078v6.28h.593q.172 0 .235.063.078.063.078.172 0 .094-.078.156-.063.063-.235.063h-1.062v-.89q-.781 1.062-1.985 1.062-.609 0-1.171-.313-.563-.328-.891-.922-.328-.609-.328-1.25 0-.64.328-1.234.328-.61.89-.937.563-.329 1.172-.329 1.188 0 1.985 1.079v-2.547h-.594q-.172 0-.25-.063-.062-.062-.062-.172 0-.093.062-.156.078-.062.25-.062zm-.47 4.421q0-.859-.577-1.453-.578-.593-1.375-.593-.813 0-1.39.593-.579.594-.579 1.453 0 .844.578 1.438t1.39.594q.798 0 1.376-.594.578-.594.578-1.438zm4.758-2.343h.203q.297 0 .5.218.22.22.22.516 0 .313-.22.531-.203.203-.5.203h-.203q-.297 0-.515-.218-.22-.219-.22-.516 0-.312.22-.516.218-.218.515-.218zm0 3.36h.203q.297 0 .5.218.22.203.22.515 0 .297-.22.516-.203.203-.5.203h-.203q-.297 0-.515-.203-.22-.219-.22-.516 0-.312.22-.515.218-.219.515-.219zm13.53-5.532v6.375h1.547q.157 0 .22.062.077.063.077.172 0 .094-.078.156-.062.063-.219.063h-3.547q-.171 0-.25-.063-.062-.062-.062-.156 0-.11.062-.172.079-.062.25-.062h1.547v-5.75l-1.484.453q-.094.031-.156.031-.078 0-.14-.062-.063-.063-.063-.157 0-.078.046-.156.047-.047.188-.093zm8.227 3.015q-.36.61-.844.922-.469.313-.985.313-.453 0-.89-.266-.438-.265-.703-.781-.25-.516-.25-1.094 0-.828.5-1.5.515-.687 1.375-.687.609 0 1.109.39.516.375.797 1.094.36.938.36 2.172 0 .953-.313 1.578-.203.438-.594.844-.39.39-.89.656-.672.328-1.407.328-.484 0-.781-.172-.14-.093-.14-.218 0-.094.062-.157.062-.062.156-.062.063 0 .188.062.203.094.484.094 1.14 0 1.953-.812.828-.829.828-2.079 0-.218-.015-.625zm-.094-.75q-.281-1.093-.703-1.484-.422-.406-.985-.406-.578 0-1.015.484-.438.485-.438 1.25 0 .735.438 1.219.437.469.984.469.313 0 .625-.172.313-.172.594-.516.172-.219.5-.844zm3.945 2.938h1.468l-1.593 2.969q-.157.265-.36.265-.125 0-.218-.093-.094-.094-.094-.22 0-.062.015-.124zm13.17-3.031h2.454q.156 0 .218.078.079.062.079.156t-.079.172q-.062.062-.218.062h-2.453v3q0 .391.312.657.313.25.922.25.453 0 .984-.125.532-.14.828-.313.11-.078.188-.078t.14.078q.063.063.063.156 0 .079-.062.157-.172.172-.844.375-.656.203-1.266.203-.781 0-1.25-.36-.469-.375-.469-1v-3h-.843q-.157 0-.235-.062-.062-.078-.062-.172 0-.094.062-.156.078-.078.235-.078h.843v-1.328q0-.157.063-.22.062-.077.156-.077.11 0 .172.078.063.062.063.219zm7.758-2.313v1.172h-.672v-1.172zm.015 2.313v4.203h1.766q.172 0 .234.062.079.063.079.172 0 .094-.079.156-.062.063-.234.063h-4q-.156 0-.234-.063-.063-.062-.063-.156 0-.11.063-.172.078-.062.234-.062h1.781v-3.735h-1.328q-.156 0-.234-.062-.063-.078-.063-.172 0-.094.063-.156.078-.078.234-.078zm5.43 0h2.453q.156 0 .219.078.078.062.078.156t-.078.172q-.063.062-.22.062h-2.452v3q0 .391.312.657.313.25.922.25.453 0 .984-.125.532-.14.829-.313.109-.078.187-.078t.14.078q.063.063.063.156 0 .079-.062.157-.172.172-.844.375-.656.203-1.266.203-.78 0-1.25-.36-.468-.375-.468-1v-3h-.844q-.156 0-.235-.062-.062-.078-.062-.172 0-.094.062-.156.079-.078.235-.078h.844v-1.328q0-.157.062-.22.063-.077.156-.077.11 0 .172.078.063.062.063.219zm7.757-2.078v6.28h1.766q.172 0 .234.063.078.063.078.172 0 .094-.078.156-.062.063-.234.063h-3.985q-.172 0-.25-.063-.062-.062-.062-.156 0-.11.062-.172.078-.062.25-.062h1.766v-5.828h-1.297q-.172 0-.25-.063-.062-.062-.062-.172 0-.093.062-.156.078-.062.25-.062zm8.804 4.515h-4.594q.125.875.735 1.406.625.532 1.531.532.5 0 1.047-.157.562-.171.906-.437.11-.094.172-.094.094 0 .156.078.063.063.063.157 0 .093-.078.172-.266.265-.922.5-.656.234-1.344.234-1.172 0-1.953-.75-.766-.766-.766-1.844 0-.984.72-1.687.733-.703 1.812-.703 1.109 0 1.812.718.719.719.703 1.875zm-.453-.453q-.125-.75-.703-1.219-.578-.468-1.36-.468-.796 0-1.359.468-.562.453-.703 1.22zm4.523-1.984h.203q.297 0 .5.218.219.22.219.516 0 .313-.219.531-.203.203-.5.203h-.203q-.297 0-.516-.218-.218-.219-.218-.516 0-.312.218-.516.22-.218.516-.218zm0 3.36h.203q.297 0 .5.218.219.203.219.515 0 .297-.219.516-.203.203-.5.203h-.203q-.297 0-.516-.203-.218-.219-.218-.516 0-.312.218-.515.22-.219.516-.219zm11.42-5.329h1.438l-.375 2.61q-.03.202-.125.296-.078.078-.218.078-.125 0-.22-.078-.077-.093-.108-.297zm2.313 0h1.422l-.375 2.61q-.03.202-.125.296-.078.078-.203.078-.14 0-.234-.078-.078-.093-.11-.297zm5.383.797v5.375h3v-1.797q0-.156.062-.219.063-.078.172-.078.094 0 .156.078.063.063.063.219v2.25h-4.984q-.157 0-.235-.063-.062-.062-.062-.156 0-.11.062-.172.078-.062.235-.062h1.078v-5.375h-1.078q-.157 0-.235-.063-.062-.062-.062-.172 0-.093.062-.156.078-.062.235-.062h2.609q.156 0 .219.062.078.063.078.156 0 .11-.078.172-.063.063-.22.063zm9.82 3.61h-4.594q.125.874.734 1.405.625.532 1.531.532.5 0 1.047-.157.563-.171.907-.437.109-.094.171-.094.094 0 .157.078.062.063.062.157 0 .093-.078.172-.266.265-.922.5-.656.234-1.344.234-1.171 0-1.953-.75-.765-.766-.765-1.844 0-.984.718-1.687.735-.703 1.813-.703 1.11 0 1.812.718.72.719.704 1.875zm-.454-.454q-.125-.75-.703-1.219-.578-.468-1.359-.468-.797 0-1.36.468-.562.453-.703 1.22zm5.914 2.672v-.656q-.984.828-2.094.828-.812 0-1.265-.406-.453-.407-.453-1 0-.657.593-1.141.61-.5 1.75-.5.313 0 .672.047.375.031.797.125v-.734q0-.375-.344-.641-.343-.281-1.031-.281-.516 0-1.469.312-.172.047-.218.047-.094 0-.157-.062-.062-.063-.062-.157 0-.093.062-.14.063-.094.61-.235.828-.218 1.265-.218.844 0 1.313.421.484.422.484.954v2.984h.61q.171 0 .234.062.078.063.078.172 0 .094-.078.157-.063.062-.234.062zm0-2.25q-.312-.094-.672-.125-.344-.047-.734-.047-.985 0-1.547.422-.422.312-.422.766 0 .406.313.687.328.266.937.266.594 0 1.094-.219.5-.234 1.031-.75zm4.773-2.406v1.14q.875-.797 1.312-1.015.438-.235.813-.235.406 0 .75.282.344.265.344.406 0 .094-.078.172-.063.062-.157.062-.062 0-.093-.015-.032-.032-.14-.125-.188-.188-.33-.25-.14-.078-.265-.078-.297 0-.718.234-.422.234-1.438 1.156v2.469h2q.156 0 .219.062.078.063.078.172 0 .094-.078.157-.063.062-.219.062h-3.547q-.156 0-.234-.062-.063-.063-.063-.157 0-.093.063-.156.062-.062.234-.062h1.094v-3.75h-.828q-.172 0-.25-.063-.063-.078-.063-.172 0-.094.063-.156.078-.078.25-.078zm5.68 0v.687q.468-.484.843-.656.39-.188.875-.188.516 0 .937.22.297.155.532.53.25.375.25.766v2.844h.39q.157 0 .22.062.077.063.077.172 0 .094-.078.156-.062.063-.219.063h-1.218q-.157 0-.235-.063-.062-.062-.062-.156 0-.11.062-.172.078-.062.235-.062h.375v-2.766q0-.484-.344-.812-.344-.328-.938-.328-.437 0-.765.187-.328.172-.938.89v2.829h.516q.156 0 .219.062.078.063.078.172 0 .094-.078.156-.063.063-.22.063h-1.484q-.156 0-.234-.063-.062-.062-.062-.156 0-.11.062-.172.078-.062.234-.062h.516v-3.735h-.375q-.172 0-.25-.062-.062-.078-.062-.172 0-.094.062-.156.078-.078.25-.078zm16.42-1.172v3.984q0 .813-.61 1.422-.609.594-1.468.594-.5 0-1-.235-.484-.234-1.063-.765v-1.656q0-.157.063-.22.062-.077.156-.077.11 0 .172.078.063.062.063.219v1.453q.406.375.812.562.406.188.797.188.453 0 .844-.203.297-.172.531-.547.25-.375.25-.813v-3.984h-1.766q-.172 0-.25-.063-.062-.062-.062-.172 0-.093.062-.156.078-.062.25-.062h3.297q.156 0 .219.062.078.063.078.156 0 .11-.078.172-.063.063-.219.063zm6.46 0v-.156q0-.157.047-.22.063-.077.172-.077.11 0 .157.078.062.062.062.219v1.156q0 .156-.062.234-.047.063-.157.063-.093 0-.156-.063-.062-.062-.062-.219-.032-.453-.47-.812-.437-.36-1.155-.36-.735 0-1.188.391-.437.39-.437.906 0 .266.125.485.125.219.328.36.203.14.453.218.265.078.812.172.922.156 1.266.312.469.203.703.578.25.375.25.875 0 .782-.625 1.329-.61.53-1.656.53-1.172 0-1.89-.734v.266q0 .156-.063.234-.047.063-.157.063-.093 0-.156-.063-.062-.078-.062-.234v-1.25q0-.172.062-.234.063-.078.156-.078.094 0 .157.078.062.062.062.203.031.5.531.906.5.39 1.36.39.844 0 1.328-.421.5-.422.5-1 0-.36-.188-.625-.187-.281-.562-.438-.25-.125-1.078-.265-1.11-.188-1.61-.563-.5-.39-.5-1.11 0-.702.563-1.202.578-.516 1.5-.516.953 0 1.64.594zm3.102-.797h1.437l-.375 2.61q-.031.202-.125.296-.078.078-.219.078-.125 0-.218-.078-.078-.093-.11-.297zm2.312 0h1.422l-.375 2.61q-.031.202-.125.296-.078.078-.203.078-.14 0-.235-.078-.078-.093-.109-.297zm5.273 5h1.469l-1.594 2.969q-.156.265-.36.265-.124 0-.218-.093-.094-.094-.094-.22 0-.062.016-.124zm16.312-5.11v6.282h.593q.172 0 .235.062.078.063.078.172 0 .094-.078.156-.063.063-.235.063h-1.062v-.89q-.781 1.062-1.985 1.062-.609 0-1.171-.313-.563-.328-.891-.922-.328-.609-.328-1.25 0-.64.328-1.234.328-.61.89-.937.563-.329 1.172-.329 1.188 0 1.985 1.079v-2.547h-.594q-.172 0-.25-.063-.062-.062-.062-.172 0-.093.062-.156.078-.062.25-.062zm-.47 4.422q0-.859-.577-1.453-.578-.593-1.375-.593-.813 0-1.39.593-.58.594-.58 1.453 0 .844.58 1.438.577.594 1.39.594.797 0 1.375-.594t.578-1.438zm7.383 0q0 1.032-.75 1.766-.734.719-1.781.719t-1.781-.735q-.735-.734-.735-1.75 0-1.03.735-1.765.734-.735 1.78-.735 1.048 0 1.782.735.75.719.75 1.765zm-.469 0q0-.843-.609-1.437-.594-.61-1.453-.61-.86 0-1.469.61-.594.594-.594 1.438 0 .828.594 1.437.61.594 1.469.594.86 0 1.453-.594.61-.594.61-1.438zm3.086-2.343v.687q.469-.484.844-.656.39-.188.875-.188.515 0 .937.22.297.155.531.53.25.375.25.766v2.844h.391q.156 0 .219.062.078.063.078.172 0 .094-.078.156-.063.063-.219.063h-1.219q-.156 0-.234-.063-.063-.062-.063-.156 0-.11.063-.172.078-.062.234-.062h.375v-2.766q0-.484-.344-.812-.343-.328-.937-.328-.438 0-.766.187-.328.172-.937.89v2.829h.515q.157 0 .22.062.077.063.077.172 0 .094-.078.156-.062.063-.219.063h-1.484q-.156 0-.234-.063-.063-.062-.063-.156 0-.11.063-.172.078-.062.234-.062h.516v-3.735h-.375q-.172 0-.25-.062-.063-.078-.063-.172 0-.094.063-.156.078-.078.25-.078zm10.492 2.437h-4.594q.125.875.734 1.406.625.532 1.531.532.5 0 1.047-.157.563-.171.907-.437.109-.094.171-.094.094 0 .157.078.062.063.062.157 0 .093-.078.172-.266.265-.922.5-.656.234-1.344.234-1.171 0-1.953-.75-.765-.766-.765-1.844 0-.984.718-1.687.735-.703 1.813-.703 1.11 0 1.812.718.72.719.704 1.875zm-.454-.453q-.125-.75-.703-1.219-.578-.468-1.36-.468-.796 0-1.358.468-.563.453-.704 1.22zm4.523-1.984h.203q.297 0 .5.218.22.22.22.516 0 .313-.22.531-.203.203-.5.203h-.203q-.297 0-.515-.218-.219-.219-.219-.516 0-.312.219-.516.218-.218.515-.218zm0 3.36h.203q.297 0 .5.218.22.203.22.515 0 .297-.22.516-.203.203-.5.203h-.203q-.297 0-.515-.203-.219-.219-.219-.516 0-.312.219-.515.218-.219.515-.219zm13-2.891v3.734h1.984q.156 0 .219.062.078.063.078.172 0 .094-.078.156-.063.063-.22.063h-3.53q-.157 0-.235-.063-.062-.062-.062-.156 0-.11.062-.172.078-.062.235-.062h1.093v-3.735h-.984q-.156 0-.234-.062-.063-.078-.063-.172 0-.094.063-.156.078-.078.234-.078h.984v-.672q0-.578.453-.984.47-.422 1.235-.422.64 0 1.36.109.28.047.327.11.063.046.063.156 0 .093-.063.156-.062.062-.172.062-.047 0-.14-.015-.813-.125-1.375-.125-.594 0-.922.297-.313.28-.313.656v.672h2.11q.172 0 .234.078.078.062.078.156t-.078.172q-.062.063-.234.063zm8.194 4.187v-.656q-.984.828-2.094.828-.812 0-1.265-.406-.453-.407-.453-1 0-.657.593-1.141.61-.5 1.75-.5.313 0 .672.047.375.031.797.125v-.734q0-.375-.344-.641-.343-.281-1.03-.281-.516 0-1.47.312-.171.047-.218.047-.094 0-.157-.062-.062-.063-.062-.157 0-.093.062-.14.063-.094.61-.235.828-.218 1.265-.218.844 0 1.313.421.484.422.484.954v2.984h.61q.172 0 .234.062.078.063.078.172 0 .094-.078.157-.062.062-.234.062zm0-2.25q-.312-.094-.672-.125-.343-.047-.734-.047-.984 0-1.547.422-.422.312-.422.766 0 .406.313.687.328.266.937.266.594 0 1.094-.219.5-.234 1.031-.75zm5.539-4.484v6.28h1.765q.172 0 .235.063.078.063.078.172 0 .094-.078.156-.063.063-.235.063h-3.984q-.172 0-.25-.063-.062-.062-.062-.156 0-.11.062-.172.078-.062.25-.062h1.766v-5.828h-1.297q-.172 0-.25-.063-.063-.062-.063-.172 0-.093.063-.156.078-.062.25-.062zm7.866 2.375q0-.157.063-.22.062-.077.156-.077.11 0 .172.078.063.062.063.234v.766q0 .172-.063.25-.062.062-.172.062-.093 0-.156-.062-.063-.063-.063-.203-.03-.313-.343-.532-.438-.296-1.157-.296-.765 0-1.187.312-.313.234-.313.516 0 .312.375.531.266.156.985.234.937.094 1.297.235.531.187.781.515t.25.72q0 .577-.547 1.03-.547.438-1.625.438-1.062 0-1.75-.531 0 .171-.031.234-.016.047-.078.094-.047.03-.11.03-.109 0-.171-.062-.063-.078-.063-.234v-.937q0-.157.063-.22.062-.077.171-.077.094 0 .157.078.062.062.062.172 0 .25.125.406.188.266.594.437.422.157 1.016.157.875 0 1.296-.313.438-.328.438-.703 0-.422-.422-.672-.453-.25-1.297-.328-.828-.094-1.203-.234-.36-.141-.562-.422-.204-.281-.204-.594 0-.578.563-.922.578-.344 1.36-.344.937 0 1.53.454zm7.54 2.14h-4.595q.125.875.735 1.406.625.532 1.53.532.5 0 1.048-.157.562-.171.906-.437.11-.094.172-.094.094 0 .156.078.063.063.063.157 0 .093-.078.172-.266.265-.922.5-.657.234-1.344.234-1.172 0-1.953-.75-.766-.766-.766-1.844 0-.984.719-1.687.734-.703 1.812-.703 1.11 0 1.813.718.719.719.703 1.875zm-.454-.453q-.125-.75-.703-1.219-.578-.468-1.36-.468-.796 0-1.359.468-.562.453-.703 1.22zm4.882 0q-.265-.203-.36-.39-.124-.235-.124-.563v-1.938q0-.296-.188-.5-.171-.203-.437-.218-.172-.016-.219-.063-.062-.078-.062-.172 0-.093.062-.156.063-.062.203-.062.438 0 .703.265.391.36.391.906v1.938q0 .297.172.5.187.188.453.219.156.015.219.078.062.047.062.156 0 .11-.062.172-.063.047-.219.062-.266.032-.453.235-.172.187-.172.484v1.938q0 .5-.328.828-.313.344-.766.344-.14 0-.203-.063-.062-.062-.062-.156 0-.11.062-.172.047-.047.219-.063.281-.03.453-.234.172-.187.172-.484v-1.938q0-.328.11-.531.109-.219.374-.422zM122.924 375.851v-7.218h-1.093q-.157 0-.235-.063-.062-.062-.062-.172 0-.093.062-.156.078-.062.235-.062h1.547v8.125h-1.547q-.157 0-.235-.063-.062-.062-.062-.156 0-.11.062-.172.078-.063.235-.063z"/><path fill="none" d="M89.76 90.126c3.974 0-3.21-17.685 7.948-35.37 11.157-17.685 40.656-35.37 81.312-35.37"/><path stroke="#595959" stroke-linejoin="round" stroke-linecap="butt" d="M89.76 90.126c3.974 0-3.21-17.685 7.948-35.37 5.578-8.843 15.742-17.685 29.594-24.317 6.925-3.316 14.773-6.08 23.43-8.014 4.328-.967 8.86-1.727 13.579-2.245a132.154 132.154 0 0110.93-.743l.352-.008"/><path fill="#595959" stroke="#595959" stroke-linecap="butt" d="M175.593 19.429l-1.11 1.138 3.075-1.163-3.104-1.086z" fill-rule="evenodd"/><path fill="none" d="M383.807 19.386c26.33 0 52.662 35.795 52.662 71.59"/><path stroke="#595959" stroke-linejoin="round" stroke-linecap="butt" d="M383.807 19.386c13.165 0 26.33 8.949 36.205 22.372 4.937 6.711 9.051 14.542 11.93 22.931a85.136 85.136 0 013.344 12.934 79.716 79.716 0 011.064 9.16l.039.767"/><path fill="#595959" stroke="#595959" stroke-linecap="butt" d="M436.389 87.55l-1.151-1.098 1.196 3.063 1.053-3.115z" fill-rule="evenodd"/><path fill="none" d="M436.45 90.976c7.484 0 5.622-17.897 14.969-35.795 9.346-17.898 29.901-35.795 59.803-35.795"/><path stroke="#595959" stroke-linejoin="round" stroke-linecap="butt" d="M436.45 90.976c7.484 0 5.622-17.897 14.969-35.795 4.673-8.949 12.148-17.898 22.193-24.61a65.677 65.677 0 0116.965-8.109 67.066 67.066 0 019.873-2.272 69.967 69.967 0 017.31-.723l.036-.001"/><path fill="#595959" stroke="#595959" stroke-linecap="butt" d="M507.796 19.465l-1.099 1.15 3.063-1.195-3.115-1.053z" fill-rule="evenodd"/><path fill="none" d="M716.01 19.386c19.432 0 38.865 28.645 38.865 57.291"/><path stroke="#595959" stroke-linejoin="round" stroke-linecap="butt" d="M716.01 19.386c9.716 0 19.432 7.161 26.72 17.903 3.643 5.371 6.68 11.638 8.805 18.352a72.828 72.828 0 012.467 10.35 68.915 68.915 0 01.747 6.66l.034.6"/><path fill="#595959" stroke="#595959" stroke-linecap="butt" d="M754.784 73.251l-1.155-1.094 1.207 3.059 1.041-3.119z" fill-rule="evenodd"/><path fill="none" d="M754.878 229.195c0 52.125-8.07 89.747-16.142 104.25-8.07 14.505-16.142 5.891-16.142 11.781"/><path stroke="#595959" stroke-linejoin="round" stroke-linecap="butt" d="M754.878 229.195c0 52.125-8.07 89.747-16.142 104.25-4.035 7.253-8.07 8.725-11.097 9.121-.757.1-1.45.13-2.065.169-.154.009-.303.02-.446.03l-.136.012"/><path fill="#595959" stroke="#595959" stroke-linecap="butt" d="M724.992 342.777l-.017-1.59-1.358 2.995 2.965-1.422z" fill-rule="evenodd"/><path fill="none" d="M505.65 337.373c0-4.715-17.3 4.896-34.599-9.43-17.299-14.327-34.598-52.592-34.598-105.184"/><path stroke="#595959" stroke-linejoin="round" stroke-linecap="butt" d="M505.65 337.373c0-4.715-17.3 4.896-34.599-9.43-8.65-7.164-17.299-20.312-23.786-38.243-3.244-8.966-5.947-19.127-7.839-30.334a209.856 209.856 0 01-2.196-17.576 225.298 225.298 0 01-.727-14.143c-.008-.404-.016-.809-.022-1.214l-.003-.247"/><path fill="#595959" stroke="#595959" stroke-linecap="butt" d="M436.478 226.186l1.133 1.116-1.148-3.081-1.101 3.098z" fill-rule="evenodd"/><path fill="none" d="M436.453 222.759c0 55.527-7.166 111.055-14.33 111.055"/><path stroke="#595959" stroke-linejoin="round" stroke-linecap="butt" d="M436.453 222.759c0 27.764-1.792 55.527-4.479 76.35-1.343 10.412-2.91 19.088-4.59 25.161-.84 3.037-1.707 5.423-2.589 7.05l-.118.21"/><path fill="#595959" stroke="#595959" stroke-linecap="butt" d="M424.677 331.53l.09-1.588-1.555 2.898 3.053-1.22z" fill-rule="evenodd"/><path fill="none" d="M110.83 333.819c-10.535 0-21.07-59.04-21.07-118.079"/><path stroke="#595959" stroke-linejoin="round" stroke-linecap="butt" d="M110.83 333.819c-5.267 0-10.535-14.76-14.486-36.9-1.975-11.07-3.621-23.984-4.773-37.822a527.624 527.624 0 01-1.78-37.824l-.018-2.106"/><path fill="#595959" stroke="#595959" stroke-linecap="butt" d="M89.773 219.167l1.129 1.12-1.137-3.085-1.112 3.094z" fill-rule="evenodd"/></svg>